<svg xmlns="http://www.w3.org/2000/svg" width="273" height="248" viewBox="0 0 273 248" fill="none"><path d="M2.72999 1.36264C2.72999 2.1152 2.11886 2.72527 1.36499 2.72527C0.611126 2.72527 0 2.1152 0 1.36264C0 0.610073 0.611126 0 1.36499 0C2.11886 0 2.72999 0.610073 2.72999 1.36264Z" fill="#132436" fill-opacity="0.16"></path><path d="M2.72999 25.8901C2.72999 26.6427 2.11886 27.2527 1.36499 27.2527C0.611126 27.2527 0 26.6427 0 25.8901C0 25.1375 0.611126 24.5275 1.36499 24.5275C2.11886 24.5275 2.72999 25.1375 2.72999 25.8901Z" fill="#132436" fill-opacity="0.16"></path><path d="M2.72999 50.4176C2.72999 51.1701 2.11886 51.7802 1.36499 51.7802C0.611126 51.7802 0 51.1701 0 50.4176C0 49.665 0.611126 49.0549 1.36499 49.0549C2.11886 49.0549 2.72999 49.665 2.72999 50.4176Z" fill="#132436" fill-opacity="0.16"></path><path d="M2.72999 74.945C2.72999 75.6976 2.11886 76.3077 1.36499 76.3077C0.611126 76.3077 0 75.6976 0 74.945C0 74.1925 0.611126 73.5824 1.36499 73.5824C2.11886 73.5824 2.72999 74.1925 2.72999 74.945Z" fill="#132436" fill-opacity="0.16"></path><path d="M2.72999 99.4725C2.72999 100.225 2.11886 100.835 1.36499 100.835C0.611126 100.835 0 100.225 0 99.4725C0 98.72 0.611126 98.1099 1.36499 98.1099C2.11886 98.1099 2.72999 98.72 2.72999 99.4725Z" fill="#132436" fill-opacity="0.16"></path><path d="M2.72999 124C2.72999 124.753 2.11886 125.363 1.36499 125.363C0.611126 125.363 0 124.753 0 124C0 123.247 0.611126 122.637 1.36499 122.637C2.11886 122.637 2.72999 123.247 2.72999 124Z" fill="#132436" fill-opacity="0.16"></path><path d="M2.72999 148.527C2.72999 149.28 2.11886 149.89 1.36499 149.89C0.611126 149.89 0 149.28 0 148.527C0 147.775 0.611126 147.165 1.36499 147.165C2.11886 147.165 2.72999 147.775 2.72999 148.527Z" fill="#132436" fill-opacity="0.16"></path><path d="M2.72999 173.055C2.72999 173.808 2.11886 174.418 1.36499 174.418C0.611126 174.418 0 173.808 0 173.055C0 172.302 0.611126 171.692 1.36499 171.692C2.11886 171.692 2.72999 172.302 2.72999 173.055Z" fill="#132436" fill-opacity="0.16"></path><path d="M2.72999 197.582C2.72999 198.335 2.11886 198.945 1.36499 198.945C0.611126 198.945 0 198.335 0 197.582C0 196.83 0.611126 196.22 1.36499 196.22C2.11886 196.22 2.72999 196.83 2.72999 197.582Z" fill="#132436" fill-opacity="0.16"></path><path d="M2.72999 222.11C2.72999 222.862 2.11886 223.473 1.36499 223.473C0.611126 223.473 0 222.862 0 222.11C0 221.357 0.611126 220.747 1.36499 220.747C2.11886 220.747 2.72999 221.357 2.72999 222.11Z" fill="#132436" fill-opacity="0.16"></path><path d="M2.72999 246.637C2.72999 247.39 2.11886 248 1.36499 248C0.611126 248 0 247.39 0 246.637C0 245.885 0.611126 245.275 1.36499 245.275C2.11886 245.275 2.72999 245.885 2.72999 246.637Z" fill="#132436" fill-opacity="0.16"></path><path d="M27.3 1.36264C27.3 2.1152 26.6889 2.72527 25.935 2.72527C25.1811 2.72527 24.57 2.1152 24.57 1.36264C24.57 0.610073 25.1811 0 25.935 0C26.6889 0 27.3 0.610073 27.3 1.36264Z" fill="#132436" fill-opacity="0.16"></path><path d="M27.3 25.8901C27.3 26.6427 26.6889 27.2527 25.935 27.2527C25.1811 27.2527 24.57 26.6427 24.57 25.8901C24.57 25.1375 25.1811 24.5275 25.935 24.5275C26.6889 24.5275 27.3 25.1375 27.3 25.8901Z" fill="#132436" fill-opacity="0.16"></path><path d="M27.3 50.4176C27.3 51.1701 26.6889 51.7802 25.935 51.7802C25.1811 51.7802 24.57 51.1701 24.57 50.4176C24.57 49.665 25.1811 49.0549 25.935 49.0549C26.6889 49.0549 27.3 49.665 27.3 50.4176Z" fill="#132436" fill-opacity="0.16"></path><path d="M27.3 74.945C27.3 75.6976 26.6889 76.3077 25.935 76.3077C25.1811 76.3077 24.57 75.6976 24.57 74.945C24.57 74.1925 25.1811 73.5824 25.935 73.5824C26.6889 73.5824 27.3 74.1925 27.3 74.945Z" fill="#132436" fill-opacity="0.16"></path><path d="M27.3 99.4725C27.3 100.225 26.6889 100.835 25.935 100.835C25.1811 100.835 24.57 100.225 24.57 99.4725C24.57 98.72 25.1811 98.1099 25.935 98.1099C26.6889 98.1099 27.3 98.72 27.3 99.4725Z" fill="#132436" fill-opacity="0.16"></path><path d="M27.3 124C27.3 124.753 26.6889 125.363 25.935 125.363C25.1811 125.363 24.57 124.753 24.57 124C24.57 123.247 25.1811 122.637 25.935 122.637C26.6889 122.637 27.3 123.247 27.3 124Z" fill="#132436" fill-opacity="0.16"></path><path d="M27.3 148.527C27.3 149.28 26.6889 149.89 25.935 149.89C25.1811 149.89 24.57 149.28 24.57 148.527C24.57 147.775 25.1811 147.165 25.935 147.165C26.6889 147.165 27.3 147.775 27.3 148.527Z" fill="#132436" fill-opacity="0.16"></path><path d="M27.3 173.055C27.3 173.808 26.6889 174.418 25.935 174.418C25.1811 174.418 24.57 173.808 24.57 173.055C24.57 172.302 25.1811 171.692 25.935 171.692C26.6889 171.692 27.3 172.302 27.3 173.055Z" fill="#132436" fill-opacity="0.16"></path><path d="M27.3 197.582C27.3 198.335 26.6889 198.945 25.935 198.945C25.1811 198.945 24.57 198.335 24.57 197.582C24.57 196.83 25.1811 196.22 25.935 196.22C26.6889 196.22 27.3 196.83 27.3 197.582Z" fill="#132436" fill-opacity="0.16"></path><path d="M27.3 222.11C27.3 222.862 26.6889 223.473 25.935 223.473C25.1811 223.473 24.57 222.862 24.57 222.11C24.57 221.357 25.1811 220.747 25.935 220.747C26.6889 220.747 27.3 221.357 27.3 222.11Z" fill="#132436" fill-opacity="0.16"></path><path d="M27.3 246.637C27.3 247.39 26.6889 248 25.935 248C25.1811 248 24.57 247.39 24.57 246.637C24.57 245.885 25.1811 245.275 25.935 245.275C26.6889 245.275 27.3 245.885 27.3 246.637Z" fill="#132436" fill-opacity="0.16"></path><path d="M51.87 1.36264C51.87 2.1152 51.2588 2.72527 50.505 2.72527C49.7511 2.72527 49.14 2.1152 49.14 1.36264C49.14 0.610073 49.7511 0 50.505 0C51.2588 0 51.87 0.610073 51.87 1.36264Z" fill="#132436" fill-opacity="0.16"></path><path d="M51.87 25.8901C51.87 26.6427 51.2588 27.2527 50.505 27.2527C49.7511 27.2527 49.14 26.6427 49.14 25.8901C49.14 25.1375 49.7511 24.5275 50.505 24.5275C51.2588 24.5275 51.87 25.1375 51.87 25.8901Z" fill="#132436" fill-opacity="0.16"></path><path d="M51.87 50.4176C51.87 51.1701 51.2588 51.7802 50.505 51.7802C49.7511 51.7802 49.14 51.1701 49.14 50.4176C49.14 49.665 49.7511 49.0549 50.505 49.0549C51.2588 49.0549 51.87 49.665 51.87 50.4176Z" fill="#132436" fill-opacity="0.16"></path><path d="M51.87 74.945C51.87 75.6976 51.2588 76.3077 50.505 76.3077C49.7511 76.3077 49.14 75.6976 49.14 74.945C49.14 74.1925 49.7511 73.5824 50.505 73.5824C51.2588 73.5824 51.87 74.1925 51.87 74.945Z" fill="#132436" fill-opacity="0.16"></path><path d="M51.87 99.4725C51.87 100.225 51.2588 100.835 50.505 100.835C49.7511 100.835 49.14 100.225 49.14 99.4725C49.14 98.72 49.7511 98.1099 50.505 98.1099C51.2588 98.1099 51.87 98.72 51.87 99.4725Z" fill="#132436" fill-opacity="0.16"></path><path d="M51.87 124C51.87 124.753 51.2588 125.363 50.505 125.363C49.7511 125.363 49.14 124.753 49.14 124C49.14 123.247 49.7511 122.637 50.505 122.637C51.2588 122.637 51.87 123.247 51.87 124Z" fill="#132436" fill-opacity="0.16"></path><path d="M51.87 148.527C51.87 149.28 51.2588 149.89 50.505 149.89C49.7511 149.89 49.14 149.28 49.14 148.527C49.14 147.775 49.7511 147.165 50.505 147.165C51.2588 147.165 51.87 147.775 51.87 148.527Z" fill="#132436" fill-opacity="0.16"></path><path d="M51.87 173.055C51.87 173.808 51.2588 174.418 50.505 174.418C49.7511 174.418 49.14 173.808 49.14 173.055C49.14 172.302 49.7511 171.692 50.505 171.692C51.2588 171.692 51.87 172.302 51.87 173.055Z" fill="#132436" fill-opacity="0.16"></path><path d="M51.87 197.582C51.87 198.335 51.2588 198.945 50.505 198.945C49.7511 198.945 49.14 198.335 49.14 197.582C49.14 196.83 49.7511 196.22 50.505 196.22C51.2588 196.22 51.87 196.83 51.87 197.582Z" fill="#132436" fill-opacity="0.16"></path><path d="M51.87 222.11C51.87 222.862 51.2588 223.473 50.505 223.473C49.7511 223.473 49.14 222.862 49.14 222.11C49.14 221.357 49.7511 220.747 50.505 220.747C51.2588 220.747 51.87 221.357 51.87 222.11Z" fill="#132436" fill-opacity="0.16"></path><path d="M51.87 246.637C51.87 247.39 51.2588 248 50.505 248C49.7511 248 49.14 247.39 49.14 246.637C49.14 245.885 49.7511 245.275 50.505 245.275C51.2588 245.275 51.87 245.885 51.87 246.637Z" fill="#132436" fill-opacity="0.16"></path><path d="M76.44 1.36264C76.44 2.1152 75.8289 2.72527 75.075 2.72527C74.3211 2.72527 73.71 2.1152 73.71 1.36264C73.71 0.610073 74.3211 0 75.075 0C75.8289 0 76.44 0.610073 76.44 1.36264Z" fill="#132436" fill-opacity="0.16"></path><path d="M76.44 25.8901C76.44 26.6427 75.8289 27.2527 75.075 27.2527C74.3211 27.2527 73.71 26.6427 73.71 25.8901C73.71 25.1375 74.3211 24.5275 75.075 24.5275C75.8289 24.5275 76.44 25.1375 76.44 25.8901Z" fill="#132436" fill-opacity="0.16"></path><path d="M76.44 50.4176C76.44 51.1701 75.8289 51.7802 75.075 51.7802C74.3211 51.7802 73.71 51.1701 73.71 50.4176C73.71 49.665 74.3211 49.0549 75.075 49.0549C75.8289 49.0549 76.44 49.665 76.44 50.4176Z" fill="#132436" fill-opacity="0.16"></path><path d="M76.44 74.945C76.44 75.6976 75.8289 76.3077 75.075 76.3077C74.3211 76.3077 73.71 75.6976 73.71 74.945C73.71 74.1925 74.3211 73.5824 75.075 73.5824C75.8289 73.5824 76.44 74.1925 76.44 74.945Z" fill="#132436" fill-opacity="0.16"></path><path d="M76.44 99.4725C76.44 100.225 75.8289 100.835 75.075 100.835C74.3211 100.835 73.71 100.225 73.71 99.4725C73.71 98.72 74.3211 98.1099 75.075 98.1099C75.8289 98.1099 76.44 98.72 76.44 99.4725Z" fill="#132436" fill-opacity="0.16"></path><path d="M76.44 124C76.44 124.753 75.8289 125.363 75.075 125.363C74.3211 125.363 73.71 124.753 73.71 124C73.71 123.247 74.3211 122.637 75.075 122.637C75.8289 122.637 76.44 123.247 76.44 124Z" fill="#132436" fill-opacity="0.16"></path><path d="M76.44 148.527C76.44 149.28 75.8289 149.89 75.075 149.89C74.3211 149.89 73.71 149.28 73.71 148.527C73.71 147.775 74.3211 147.165 75.075 147.165C75.8289 147.165 76.44 147.775 76.44 148.527Z" fill="#132436" fill-opacity="0.16"></path><path d="M76.44 173.055C76.44 173.808 75.8289 174.418 75.075 174.418C74.3211 174.418 73.71 173.808 73.71 173.055C73.71 172.302 74.3211 171.692 75.075 171.692C75.8289 171.692 76.44 172.302 76.44 173.055Z" fill="#132436" fill-opacity="0.16"></path><path d="M76.44 197.582C76.44 198.335 75.8289 198.945 75.075 198.945C74.3211 198.945 73.71 198.335 73.71 197.582C73.71 196.83 74.3211 196.22 75.075 196.22C75.8289 196.22 76.44 196.83 76.44 197.582Z" fill="#132436" fill-opacity="0.16"></path><path d="M76.44 222.11C76.44 222.862 75.8289 223.473 75.075 223.473C74.3211 223.473 73.71 222.862 73.71 222.11C73.71 221.357 74.3211 220.747 75.075 220.747C75.8289 220.747 76.44 221.357 76.44 222.11Z" fill="#132436" fill-opacity="0.16"></path><path d="M76.44 246.637C76.44 247.39 75.8289 248 75.075 248C74.3211 248 73.71 247.39 73.71 246.637C73.71 245.885 74.3211 245.275 75.075 245.275C75.8289 245.275 76.44 245.885 76.44 246.637Z" fill="#132436" fill-opacity="0.16"></path><path d="M101.01 1.36264C101.01 2.1152 100.399 2.72527 99.645 2.72527C98.8912 2.72527 98.28 2.1152 98.28 1.36264C98.28 0.610073 98.8912 0 99.645 0C100.399 0 101.01 0.610073 101.01 1.36264Z" fill="#132436" fill-opacity="0.16"></path><path d="M101.01 25.8901C101.01 26.6427 100.399 27.2527 99.645 27.2527C98.8912 27.2527 98.28 26.6427 98.28 25.8901C98.28 25.1375 98.8912 24.5275 99.645 24.5275C100.399 24.5275 101.01 25.1375 101.01 25.8901Z" fill="#132436" fill-opacity="0.16"></path><path d="M101.01 50.4176C101.01 51.1701 100.399 51.7802 99.645 51.7802C98.8912 51.7802 98.28 51.1701 98.28 50.4176C98.28 49.665 98.8912 49.0549 99.645 49.0549C100.399 49.0549 101.01 49.665 101.01 50.4176Z" fill="#132436" fill-opacity="0.16"></path><path d="M101.01 74.945C101.01 75.6976 100.399 76.3077 99.645 76.3077C98.8912 76.3077 98.28 75.6976 98.28 74.945C98.28 74.1925 98.8912 73.5824 99.645 73.5824C100.399 73.5824 101.01 74.1925 101.01 74.945Z" fill="#132436" fill-opacity="0.16"></path><path d="M101.01 99.4725C101.01 100.225 100.399 100.835 99.645 100.835C98.8912 100.835 98.28 100.225 98.28 99.4725C98.28 98.72 98.8912 98.1099 99.645 98.1099C100.399 98.1099 101.01 98.72 101.01 99.4725Z" fill="#132436" fill-opacity="0.16"></path><path d="M101.01 124C101.01 124.753 100.399 125.363 99.645 125.363C98.8912 125.363 98.28 124.753 98.28 124C98.28 123.247 98.8912 122.637 99.645 122.637C100.399 122.637 101.01 123.247 101.01 124Z" fill="#132436" fill-opacity="0.16"></path><path d="M101.01 148.527C101.01 149.28 100.399 149.89 99.645 149.89C98.8912 149.89 98.28 149.28 98.28 148.527C98.28 147.775 98.8912 147.165 99.645 147.165C100.399 147.165 101.01 147.775 101.01 148.527Z" fill="#132436" fill-opacity="0.16"></path><path d="M101.01 173.055C101.01 173.808 100.399 174.418 99.645 174.418C98.8912 174.418 98.28 173.808 98.28 173.055C98.28 172.302 98.8912 171.692 99.645 171.692C100.399 171.692 101.01 172.302 101.01 173.055Z" fill="#132436" fill-opacity="0.16"></path><path d="M101.01 197.582C101.01 198.335 100.399 198.945 99.645 198.945C98.8912 198.945 98.28 198.335 98.28 197.582C98.28 196.83 98.8912 196.22 99.645 196.22C100.399 196.22 101.01 196.83 101.01 197.582Z" fill="#132436" fill-opacity="0.16"></path><path d="M101.01 222.11C101.01 222.862 100.399 223.473 99.645 223.473C98.8912 223.473 98.28 222.862 98.28 222.11C98.28 221.357 98.8912 220.747 99.645 220.747C100.399 220.747 101.01 221.357 101.01 222.11Z" fill="#132436" fill-opacity="0.16"></path><path d="M101.01 246.637C101.01 247.39 100.399 248 99.645 248C98.8912 248 98.28 247.39 98.28 246.637C98.28 245.885 98.8912 245.275 99.645 245.275C100.399 245.275 101.01 245.885 101.01 246.637Z" fill="#132436" fill-opacity="0.16"></path><path d="M125.58 1.36264C125.58 2.1152 124.969 2.72527 124.215 2.72527C123.461 2.72527 122.85 2.1152 122.85 1.36264C122.85 0.610073 123.461 0 124.215 0C124.969 0 125.58 0.610073 125.58 1.36264Z" fill="#132436" fill-opacity="0.16"></path><path d="M125.58 25.8901C125.58 26.6427 124.969 27.2527 124.215 27.2527C123.461 27.2527 122.85 26.6427 122.85 25.8901C122.85 25.1375 123.461 24.5275 124.215 24.5275C124.969 24.5275 125.58 25.1375 125.58 25.8901Z" fill="#132436" fill-opacity="0.16"></path><path d="M125.58 50.4176C125.58 51.1701 124.969 51.7802 124.215 51.7802C123.461 51.7802 122.85 51.1701 122.85 50.4176C122.85 49.665 123.461 49.0549 124.215 49.0549C124.969 49.0549 125.58 49.665 125.58 50.4176Z" fill="#132436" fill-opacity="0.16"></path><path d="M125.58 74.945C125.58 75.6976 124.969 76.3077 124.215 76.3077C123.461 76.3077 122.85 75.6976 122.85 74.945C122.85 74.1925 123.461 73.5824 124.215 73.5824C124.969 73.5824 125.58 74.1925 125.58 74.945Z" fill="#132436" fill-opacity="0.16"></path><path d="M125.58 99.4725C125.58 100.225 124.969 100.835 124.215 100.835C123.461 100.835 122.85 100.225 122.85 99.4725C122.85 98.72 123.461 98.1099 124.215 98.1099C124.969 98.1099 125.58 98.72 125.58 99.4725Z" fill="#132436" fill-opacity="0.16"></path><path d="M125.58 124C125.58 124.753 124.969 125.363 124.215 125.363C123.461 125.363 122.85 124.753 122.85 124C122.85 123.247 123.461 122.637 124.215 122.637C124.969 122.637 125.58 123.247 125.58 124Z" fill="#132436" fill-opacity="0.16"></path><path d="M125.58 148.527C125.58 149.28 124.969 149.89 124.215 149.89C123.461 149.89 122.85 149.28 122.85 148.527C122.85 147.775 123.461 147.165 124.215 147.165C124.969 147.165 125.58 147.775 125.58 148.527Z" fill="#132436" fill-opacity="0.16"></path><path d="M125.58 173.055C125.58 173.808 124.969 174.418 124.215 174.418C123.461 174.418 122.85 173.808 122.85 173.055C122.85 172.302 123.461 171.692 124.215 171.692C124.969 171.692 125.58 172.302 125.58 173.055Z" fill="#132436" fill-opacity="0.16"></path><path d="M125.58 197.582C125.58 198.335 124.969 198.945 124.215 198.945C123.461 198.945 122.85 198.335 122.85 197.582C122.85 196.83 123.461 196.22 124.215 196.22C124.969 196.22 125.58 196.83 125.58 197.582Z" fill="#132436" fill-opacity="0.16"></path><path d="M125.58 222.11C125.58 222.862 124.969 223.473 124.215 223.473C123.461 223.473 122.85 222.862 122.85 222.11C122.85 221.357 123.461 220.747 124.215 220.747C124.969 220.747 125.58 221.357 125.58 222.11Z" fill="#132436" fill-opacity="0.16"></path><path d="M125.58 246.637C125.58 247.39 124.969 248 124.215 248C123.461 248 122.85 247.39 122.85 246.637C122.85 245.885 123.461 245.275 124.215 245.275C124.969 245.275 125.58 245.885 125.58 246.637Z" fill="#132436" fill-opacity="0.16"></path><path d="M150.15 1.36264C150.15 2.1152 149.539 2.72527 148.785 2.72527C148.031 2.72527 147.42 2.1152 147.42 1.36264C147.42 0.610073 148.031 0 148.785 0C149.539 0 150.15 0.610073 150.15 1.36264Z" fill="#132436" fill-opacity="0.16"></path><path d="M150.15 25.8901C150.15 26.6427 149.539 27.2527 148.785 27.2527C148.031 27.2527 147.42 26.6427 147.42 25.8901C147.42 25.1375 148.031 24.5275 148.785 24.5275C149.539 24.5275 150.15 25.1375 150.15 25.8901Z" fill="#132436" fill-opacity="0.16"></path><path d="M150.15 50.4176C150.15 51.1701 149.539 51.7802 148.785 51.7802C148.031 51.7802 147.42 51.1701 147.42 50.4176C147.42 49.665 148.031 49.0549 148.785 49.0549C149.539 49.0549 150.15 49.665 150.15 50.4176Z" fill="#132436" fill-opacity="0.16"></path><path d="M150.15 74.945C150.15 75.6976 149.539 76.3077 148.785 76.3077C148.031 76.3077 147.42 75.6976 147.42 74.945C147.42 74.1925 148.031 73.5824 148.785 73.5824C149.539 73.5824 150.15 74.1925 150.15 74.945Z" fill="#132436" fill-opacity="0.16"></path><path d="M150.15 99.4725C150.15 100.225 149.539 100.835 148.785 100.835C148.031 100.835 147.42 100.225 147.42 99.4725C147.42 98.72 148.031 98.1099 148.785 98.1099C149.539 98.1099 150.15 98.72 150.15 99.4725Z" fill="#132436" fill-opacity="0.16"></path><path d="M150.15 124C150.15 124.753 149.539 125.363 148.785 125.363C148.031 125.363 147.42 124.753 147.42 124C147.42 123.247 148.031 122.637 148.785 122.637C149.539 122.637 150.15 123.247 150.15 124Z" fill="#132436" fill-opacity="0.16"></path><path d="M150.15 148.527C150.15 149.28 149.539 149.89 148.785 149.89C148.031 149.89 147.42 149.28 147.42 148.527C147.42 147.775 148.031 147.165 148.785 147.165C149.539 147.165 150.15 147.775 150.15 148.527Z" fill="#132436" fill-opacity="0.16"></path><path d="M150.15 173.055C150.15 173.808 149.539 174.418 148.785 174.418C148.031 174.418 147.42 173.808 147.42 173.055C147.42 172.302 148.031 171.692 148.785 171.692C149.539 171.692 150.15 172.302 150.15 173.055Z" fill="#132436" fill-opacity="0.16"></path><path d="M150.15 197.582C150.15 198.335 149.539 198.945 148.785 198.945C148.031 198.945 147.42 198.335 147.42 197.582C147.42 196.83 148.031 196.22 148.785 196.22C149.539 196.22 150.15 196.83 150.15 197.582Z" fill="#132436" fill-opacity="0.16"></path><path d="M150.15 222.11C150.15 222.862 149.539 223.473 148.785 223.473C148.031 223.473 147.42 222.862 147.42 222.11C147.42 221.357 148.031 220.747 148.785 220.747C149.539 220.747 150.15 221.357 150.15 222.11Z" fill="#132436" fill-opacity="0.16"></path><path d="M150.15 246.637C150.15 247.39 149.539 248 148.785 248C148.031 248 147.42 247.39 147.42 246.637C147.42 245.885 148.031 245.275 148.785 245.275C149.539 245.275 150.15 245.885 150.15 246.637Z" fill="#132436" fill-opacity="0.16"></path><path d="M174.72 1.36264C174.72 2.1152 174.109 2.72527 173.355 2.72527C172.601 2.72527 171.99 2.1152 171.99 1.36264C171.99 0.610073 172.601 0 173.355 0C174.109 0 174.72 0.610073 174.72 1.36264Z" fill="#132436" fill-opacity="0.16"></path><path d="M174.72 25.8901C174.72 26.6427 174.109 27.2527 173.355 27.2527C172.601 27.2527 171.99 26.6427 171.99 25.8901C171.99 25.1375 172.601 24.5275 173.355 24.5275C174.109 24.5275 174.72 25.1375 174.72 25.8901Z" fill="#132436" fill-opacity="0.16"></path><path d="M174.72 50.4176C174.72 51.1701 174.109 51.7802 173.355 51.7802C172.601 51.7802 171.99 51.1701 171.99 50.4176C171.99 49.665 172.601 49.0549 173.355 49.0549C174.109 49.0549 174.72 49.665 174.72 50.4176Z" fill="#132436" fill-opacity="0.16"></path><path d="M174.72 74.945C174.72 75.6976 174.109 76.3077 173.355 76.3077C172.601 76.3077 171.99 75.6976 171.99 74.945C171.99 74.1925 172.601 73.5824 173.355 73.5824C174.109 73.5824 174.72 74.1925 174.72 74.945Z" fill="#132436" fill-opacity="0.16"></path><path d="M174.72 99.4725C174.72 100.225 174.109 100.835 173.355 100.835C172.601 100.835 171.99 100.225 171.99 99.4725C171.99 98.72 172.601 98.1099 173.355 98.1099C174.109 98.1099 174.72 98.72 174.72 99.4725Z" fill="#132436" fill-opacity="0.16"></path><path d="M174.72 124C174.72 124.753 174.109 125.363 173.355 125.363C172.601 125.363 171.99 124.753 171.99 124C171.99 123.247 172.601 122.637 173.355 122.637C174.109 122.637 174.72 123.247 174.72 124Z" fill="#132436" fill-opacity="0.16"></path><path d="M174.72 148.527C174.72 149.28 174.109 149.89 173.355 149.89C172.601 149.89 171.99 149.28 171.99 148.527C171.99 147.775 172.601 147.165 173.355 147.165C174.109 147.165 174.72 147.775 174.72 148.527Z" fill="#132436" fill-opacity="0.16"></path><path d="M174.72 173.055C174.72 173.808 174.109 174.418 173.355 174.418C172.601 174.418 171.99 173.808 171.99 173.055C171.99 172.302 172.601 171.692 173.355 171.692C174.109 171.692 174.72 172.302 174.72 173.055Z" fill="#132436" fill-opacity="0.16"></path><path d="M174.72 197.582C174.72 198.335 174.109 198.945 173.355 198.945C172.601 198.945 171.99 198.335 171.99 197.582C171.99 196.83 172.601 196.22 173.355 196.22C174.109 196.22 174.72 196.83 174.72 197.582Z" fill="#132436" fill-opacity="0.16"></path><path d="M174.72 222.11C174.72 222.862 174.109 223.473 173.355 223.473C172.601 223.473 171.99 222.862 171.99 222.11C171.99 221.357 172.601 220.747 173.355 220.747C174.109 220.747 174.72 221.357 174.72 222.11Z" fill="#132436" fill-opacity="0.16"></path><path d="M174.72 246.637C174.72 247.39 174.109 248 173.355 248C172.601 248 171.99 247.39 171.99 246.637C171.99 245.885 172.601 245.275 173.355 245.275C174.109 245.275 174.72 245.885 174.72 246.637Z" fill="#132436" fill-opacity="0.16"></path><path d="M199.29 1.36264C199.29 2.1152 198.679 2.72527 197.925 2.72527C197.171 2.72527 196.56 2.1152 196.56 1.36264C196.56 0.610073 197.171 0 197.925 0C198.679 0 199.29 0.610073 199.29 1.36264Z" fill="#132436" fill-opacity="0.16"></path><path d="M199.29 25.8901C199.29 26.6427 198.679 27.2527 197.925 27.2527C197.171 27.2527 196.56 26.6427 196.56 25.8901C196.56 25.1375 197.171 24.5275 197.925 24.5275C198.679 24.5275 199.29 25.1375 199.29 25.8901Z" fill="#132436" fill-opacity="0.16"></path><path d="M199.29 50.4176C199.29 51.1701 198.679 51.7802 197.925 51.7802C197.171 51.7802 196.56 51.1701 196.56 50.4176C196.56 49.665 197.171 49.0549 197.925 49.0549C198.679 49.0549 199.29 49.665 199.29 50.4176Z" fill="#132436" fill-opacity="0.16"></path><path d="M199.29 74.945C199.29 75.6976 198.679 76.3077 197.925 76.3077C197.171 76.3077 196.56 75.6976 196.56 74.945C196.56 74.1925 197.171 73.5824 197.925 73.5824C198.679 73.5824 199.29 74.1925 199.29 74.945Z" fill="#132436" fill-opacity="0.16"></path><path d="M199.29 99.4725C199.29 100.225 198.679 100.835 197.925 100.835C197.171 100.835 196.56 100.225 196.56 99.4725C196.56 98.72 197.171 98.1099 197.925 98.1099C198.679 98.1099 199.29 98.72 199.29 99.4725Z" fill="#132436" fill-opacity="0.16"></path><path d="M199.29 124C199.29 124.753 198.679 125.363 197.925 125.363C197.171 125.363 196.56 124.753 196.56 124C196.56 123.247 197.171 122.637 197.925 122.637C198.679 122.637 199.29 123.247 199.29 124Z" fill="#132436" fill-opacity="0.16"></path><path d="M199.29 148.527C199.29 149.28 198.679 149.89 197.925 149.89C197.171 149.89 196.56 149.28 196.56 148.527C196.56 147.775 197.171 147.165 197.925 147.165C198.679 147.165 199.29 147.775 199.29 148.527Z" fill="#132436" fill-opacity="0.16"></path><path d="M199.29 173.055C199.29 173.808 198.679 174.418 197.925 174.418C197.171 174.418 196.56 173.808 196.56 173.055C196.56 172.302 197.171 171.692 197.925 171.692C198.679 171.692 199.29 172.302 199.29 173.055Z" fill="#132436" fill-opacity="0.16"></path><path d="M199.29 197.582C199.29 198.335 198.679 198.945 197.925 198.945C197.171 198.945 196.56 198.335 196.56 197.582C196.56 196.83 197.171 196.22 197.925 196.22C198.679 196.22 199.29 196.83 199.29 197.582Z" fill="#132436" fill-opacity="0.16"></path><path d="M199.29 222.11C199.29 222.862 198.679 223.473 197.925 223.473C197.171 223.473 196.56 222.862 196.56 222.11C196.56 221.357 197.171 220.747 197.925 220.747C198.679 220.747 199.29 221.357 199.29 222.11Z" fill="#132436" fill-opacity="0.16"></path><path d="M199.29 246.637C199.29 247.39 198.679 248 197.925 248C197.171 248 196.56 247.39 196.56 246.637C196.56 245.885 197.171 245.275 197.925 245.275C198.679 245.275 199.29 245.885 199.29 246.637Z" fill="#132436" fill-opacity="0.16"></path><path d="M223.86 1.36264C223.86 2.1152 223.249 2.72527 222.495 2.72527C221.741 2.72527 221.13 2.1152 221.13 1.36264C221.13 0.610073 221.741 0 222.495 0C223.249 0 223.86 0.610073 223.86 1.36264Z" fill="#132436" fill-opacity="0.16"></path><path d="M223.86 25.8901C223.86 26.6427 223.249 27.2527 222.495 27.2527C221.741 27.2527 221.13 26.6427 221.13 25.8901C221.13 25.1375 221.741 24.5275 222.495 24.5275C223.249 24.5275 223.86 25.1375 223.86 25.8901Z" fill="#132436" fill-opacity="0.16"></path><path d="M223.86 50.4176C223.86 51.1701 223.249 51.7802 222.495 51.7802C221.741 51.7802 221.13 51.1701 221.13 50.4176C221.13 49.665 221.741 49.0549 222.495 49.0549C223.249 49.0549 223.86 49.665 223.86 50.4176Z" fill="#132436" fill-opacity="0.16"></path><path d="M223.86 74.945C223.86 75.6976 223.249 76.3077 222.495 76.3077C221.741 76.3077 221.13 75.6976 221.13 74.945C221.13 74.1925 221.741 73.5824 222.495 73.5824C223.249 73.5824 223.86 74.1925 223.86 74.945Z" fill="#132436" fill-opacity="0.16"></path><path d="M223.86 99.4725C223.86 100.225 223.249 100.835 222.495 100.835C221.741 100.835 221.13 100.225 221.13 99.4725C221.13 98.72 221.741 98.1099 222.495 98.1099C223.249 98.1099 223.86 98.72 223.86 99.4725Z" fill="#132436" fill-opacity="0.16"></path><path d="M223.86 124C223.86 124.753 223.249 125.363 222.495 125.363C221.741 125.363 221.13 124.753 221.13 124C221.13 123.247 221.741 122.637 222.495 122.637C223.249 122.637 223.86 123.247 223.86 124Z" fill="#132436" fill-opacity="0.16"></path><path d="M223.86 148.527C223.86 149.28 223.249 149.89 222.495 149.89C221.741 149.89 221.13 149.28 221.13 148.527C221.13 147.775 221.741 147.165 222.495 147.165C223.249 147.165 223.86 147.775 223.86 148.527Z" fill="#132436" fill-opacity="0.16"></path><path d="M223.86 173.055C223.86 173.808 223.249 174.418 222.495 174.418C221.741 174.418 221.13 173.808 221.13 173.055C221.13 172.302 221.741 171.692 222.495 171.692C223.249 171.692 223.86 172.302 223.86 173.055Z" fill="#132436" fill-opacity="0.16"></path><path d="M223.86 197.582C223.86 198.335 223.249 198.945 222.495 198.945C221.741 198.945 221.13 198.335 221.13 197.582C221.13 196.83 221.741 196.22 222.495 196.22C223.249 196.22 223.86 196.83 223.86 197.582Z" fill="#132436" fill-opacity="0.16"></path><path d="M223.86 222.11C223.86 222.862 223.249 223.473 222.495 223.473C221.741 223.473 221.13 222.862 221.13 222.11C221.13 221.357 221.741 220.747 222.495 220.747C223.249 220.747 223.86 221.357 223.86 222.11Z" fill="#132436" fill-opacity="0.16"></path><path d="M223.86 246.637C223.86 247.39 223.249 248 222.495 248C221.741 248 221.13 247.39 221.13 246.637C221.13 245.885 221.741 245.275 222.495 245.275C223.249 245.275 223.86 245.885 223.86 246.637Z" fill="#132436" fill-opacity="0.16"></path><path d="M248.43 1.36264C248.43 2.1152 247.819 2.72527 247.065 2.72527C246.311 2.72527 245.7 2.1152 245.7 1.36264C245.7 0.610073 246.311 0 247.065 0C247.819 0 248.43 0.610073 248.43 1.36264Z" fill="#132436" fill-opacity="0.16"></path><path d="M248.43 25.8901C248.43 26.6427 247.819 27.2527 247.065 27.2527C246.311 27.2527 245.7 26.6427 245.7 25.8901C245.7 25.1375 246.311 24.5275 247.065 24.5275C247.819 24.5275 248.43 25.1375 248.43 25.8901Z" fill="#132436" fill-opacity="0.16"></path><path d="M248.43 50.4176C248.43 51.1701 247.819 51.7802 247.065 51.7802C246.311 51.7802 245.7 51.1701 245.7 50.4176C245.7 49.665 246.311 49.0549 247.065 49.0549C247.819 49.0549 248.43 49.665 248.43 50.4176Z" fill="#132436" fill-opacity="0.16"></path><path d="M248.43 74.945C248.43 75.6976 247.819 76.3077 247.065 76.3077C246.311 76.3077 245.7 75.6976 245.7 74.945C245.7 74.1925 246.311 73.5824 247.065 73.5824C247.819 73.5824 248.43 74.1925 248.43 74.945Z" fill="#132436" fill-opacity="0.16"></path><path d="M248.43 99.4725C248.43 100.225 247.819 100.835 247.065 100.835C246.311 100.835 245.7 100.225 245.7 99.4725C245.7 98.72 246.311 98.1099 247.065 98.1099C247.819 98.1099 248.43 98.72 248.43 99.4725Z" fill="#132436" fill-opacity="0.16"></path><path d="M248.43 124C248.43 124.753 247.819 125.363 247.065 125.363C246.311 125.363 245.7 124.753 245.7 124C245.7 123.247 246.311 122.637 247.065 122.637C247.819 122.637 248.43 123.247 248.43 124Z" fill="#132436" fill-opacity="0.16"></path><path d="M248.43 148.527C248.43 149.28 247.819 149.89 247.065 149.89C246.311 149.89 245.7 149.28 245.7 148.527C245.7 147.775 246.311 147.165 247.065 147.165C247.819 147.165 248.43 147.775 248.43 148.527Z" fill="#132436" fill-opacity="0.16"></path><path d="M248.43 173.055C248.43 173.808 247.819 174.418 247.065 174.418C246.311 174.418 245.7 173.808 245.7 173.055C245.7 172.302 246.311 171.692 247.065 171.692C247.819 171.692 248.43 172.302 248.43 173.055Z" fill="#132436" fill-opacity="0.16"></path><path d="M248.43 197.582C248.43 198.335 247.819 198.945 247.065 198.945C246.311 198.945 245.7 198.335 245.7 197.582C245.7 196.83 246.311 196.22 247.065 196.22C247.819 196.22 248.43 196.83 248.43 197.582Z" fill="#132436" fill-opacity="0.16"></path><path d="M248.43 222.11C248.43 222.862 247.819 223.473 247.065 223.473C246.311 223.473 245.7 222.862 245.7 222.11C245.7 221.357 246.311 220.747 247.065 220.747C247.819 220.747 248.43 221.357 248.43 222.11Z" fill="#132436" fill-opacity="0.16"></path><path d="M248.43 246.637C248.43 247.39 247.819 248 247.065 248C246.311 248 245.7 247.39 245.7 246.637C245.7 245.885 246.311 245.275 247.065 245.275C247.819 245.275 248.43 245.885 248.43 246.637Z" fill="#132436" fill-opacity="0.16"></path><path d="M273 1.36264C273 2.1152 272.389 2.72527 271.635 2.72527C270.881 2.72527 270.27 2.1152 270.27 1.36264C270.27 0.610073 270.881 0 271.635 0C272.389 0 273 0.610073 273 1.36264Z" fill="#132436" fill-opacity="0.16"></path><path d="M273 25.8901C273 26.6427 272.389 27.2527 271.635 27.2527C270.881 27.2527 270.27 26.6427 270.27 25.8901C270.27 25.1375 270.881 24.5275 271.635 24.5275C272.389 24.5275 273 25.1375 273 25.8901Z" fill="#132436" fill-opacity="0.16"></path><path d="M273 50.4176C273 51.1701 272.389 51.7802 271.635 51.7802C270.881 51.7802 270.27 51.1701 270.27 50.4176C270.27 49.665 270.881 49.0549 271.635 49.0549C272.389 49.0549 273 49.665 273 50.4176Z" fill="#132436" fill-opacity="0.16"></path><path d="M273 74.945C273 75.6976 272.389 76.3077 271.635 76.3077C270.881 76.3077 270.27 75.6976 270.27 74.945C270.27 74.1925 270.881 73.5824 271.635 73.5824C272.389 73.5824 273 74.1925 273 74.945Z" fill="#132436" fill-opacity="0.16"></path><path d="M273 99.4725C273 100.225 272.389 100.835 271.635 100.835C270.881 100.835 270.27 100.225 270.27 99.4725C270.27 98.72 270.881 98.1099 271.635 98.1099C272.389 98.1099 273 98.72 273 99.4725Z" fill="#132436" fill-opacity="0.16"></path><path d="M273 124C273 124.753 272.389 125.363 271.635 125.363C270.881 125.363 270.27 124.753 270.27 124C270.27 123.247 270.881 122.637 271.635 122.637C272.389 122.637 273 123.247 273 124Z" fill="#132436" fill-opacity="0.16"></path><path d="M273 148.527C273 149.28 272.389 149.89 271.635 149.89C270.881 149.89 270.27 149.28 270.27 148.527C270.27 147.775 270.881 147.165 271.635 147.165C272.389 147.165 273 147.775 273 148.527Z" fill="#132436" fill-opacity="0.16"></path><path d="M273 173.055C273 173.808 272.389 174.418 271.635 174.418C270.881 174.418 270.27 173.808 270.27 173.055C270.27 172.302 270.881 171.692 271.635 171.692C272.389 171.692 273 172.302 273 173.055Z" fill="#132436" fill-opacity="0.16"></path><path d="M273 197.582C273 198.335 272.389 198.945 271.635 198.945C270.881 198.945 270.27 198.335 270.27 197.582C270.27 196.83 270.881 196.22 271.635 196.22C272.389 196.22 273 196.83 273 197.582Z" fill="#132436" fill-opacity="0.16"></path><path d="M273 222.11C273 222.862 272.389 223.473 271.635 223.473C270.881 223.473 270.27 222.862 270.27 222.11C270.27 221.357 270.881 220.747 271.635 220.747C272.389 220.747 273 221.357 273 222.11Z" fill="#132436" fill-opacity="0.16"></path><path d="M273 246.637C273 247.39 272.389 248 271.635 248C270.881 248 270.27 247.39 270.27 246.637C270.27 245.885 270.881 245.275 271.635 245.275C272.389 245.275 273 245.885 273 246.637Z" fill="#132436" fill-opacity="0.16"></path></svg>