<svg width="104" height="104" viewBox="0 0 104 104" fill="none" xmlns="http://www.w3.org/2000/svg">
<g clip-path="url(#clip0_6_208)">
<path fill-rule="evenodd" clip-rule="evenodd" d="M0 0H104V104H0V0V0Z" fill="black"/>
<g clip-path="url(#clip1_6_208)">
<path d="M-1 37.8095C-1 23.8749 -1 16.9076 1.71186 11.5852C4.09728 6.90358 7.90358 3.09728 12.5852 0.711862C17.9076 -2 24.8749 -2 38.8095 -2H69.1905C83.1251 -2 90.0924 -2 95.4148 0.711862C100.096 3.09728 103.903 6.90358 106.288 11.5852C109 16.9076 109 23.8749 109 37.8095V68.1905C109 82.1251 109 89.0924 106.288 94.4148C103.903 99.0964 100.096 102.903 95.4148 105.288C90.0924 108 83.1251 108 69.1905 108H38.8095C24.8749 108 17.9076 108 12.5852 105.288C7.90358 102.903 4.09728 99.0964 1.71186 94.4148C-1 89.0924 -1 82.1251 -1 68.1905V37.8095Z" fill="#330000"/>
<path d="M52.3045 67.1282H35.2586L31.7905 78.178C31.6942 78.5886 31.3161 78.8793 30.9049 78.8592H22.2713C21.779 78.8592 21.6068 78.5817 21.7548 78.0267L36.513 34.4328C36.6607 33.9788 36.8083 33.4616 36.9559 32.8813C37.1489 31.8715 37.2478 30.8452 37.2511 29.8162C37.2088 29.5122 37.4759 29.2437 37.7676 29.2863H49.5003C49.8441 29.2863 50.0409 29.4125 50.0907 29.6648L66.8416 78.1023C66.9891 78.6073 66.8414 78.8596 66.3987 78.8592H56.8057C56.4692 78.8974 56.1479 78.6668 56.0678 78.3294L52.3045 67.1282ZM37.9151 57.5921H49.5742C47.6586 51.0464 45.4968 44.5867 43.7447 37.99C41.8543 44.5978 39.7918 51.179 37.9151 57.5921Z" fill="#FF9A00"/>
<path d="M76.8025 37.3086C76.0498 37.3396 75.2993 37.2073 74.5999 36.9204C73.9005 36.6335 73.2681 36.1984 72.7439 35.6435C72.2212 35.0647 71.8152 34.3856 71.5492 33.6452C71.2833 32.9049 71.1626 32.1179 71.1941 31.3296C71.1673 30.549 71.3013 29.7715 71.5874 29.0477C71.8735 28.3239 72.3053 27.6701 72.8545 27.1291C73.3984 26.5937 74.0404 26.1742 74.7433 25.8949C75.4463 25.6156 76.1963 25.482 76.9499 25.5019C78.7211 25.5019 80.1108 26.0443 81.1192 27.1291C81.6283 27.6929 82.0239 28.354 82.2835 29.0748C82.543 29.7956 82.6614 30.5618 82.6319 31.3296C82.6627 32.121 82.5382 32.9107 82.2657 33.6518C81.9931 34.3928 81.5782 35.0702 81.0454 35.6435C80.4886 36.2065 79.8241 36.6451 79.0939 36.9316C78.3636 37.2182 77.5834 37.3466 76.8025 37.3086ZM71.7107 78.102V41.9252C71.7107 41.4712 71.9067 41.2441 72.301 41.2441H81.3775C81.7707 41.2441 81.9675 41.4711 81.9679 41.9252V78.102C81.9679 78.607 81.7711 78.8593 81.3775 78.8589H72.3749C71.9322 78.8589 71.7108 78.6066 71.7107 78.102Z" fill="#FF9A00"/>
</g>
</g>
<defs>
<clipPath id="clip0_6_208">
<rect width="104" height="104" rx="52" fill="white"/>
</clipPath>
<clipPath id="clip1_6_208">
<rect width="110" height="110" fill="white" transform="translate(-1 -2)"/>
</clipPath>
</defs>
</svg>
