<svg width="104" height="104" viewBox="0 0 104 104" fill="none" xmlns="http://www.w3.org/2000/svg">
<g clip-path="url(#clip0_6_28)">
<path fill-rule="evenodd" clip-rule="evenodd" d="M0 0H104V104H0V0V0Z" fill="black"/>
<path fill-rule="evenodd" clip-rule="evenodd" d="M16.2685 30.8374L51.9521 18.1235L88.5962 30.6114L82.6631 77.8222L51.9521 94.8305L21.7213 78.0482L16.2685 30.8374V30.8374Z" fill="#E23237"/>
<path fill-rule="evenodd" clip-rule="evenodd" d="M88.5963 30.6114L51.9521 18.1235V94.8305L82.6631 77.8504L88.5963 30.6114V30.6114V30.6114Z" fill="#B52E31"/>
<path fill-rule="evenodd" clip-rule="evenodd" d="M52.0086 27.0798V27.0798L29.7734 76.5509L38.0798 76.4096L42.5438 65.2497H52.0368H52.0651H62.4904L67.3782 76.5509L75.3173 76.6922L52.0086 27.0798V27.0798V27.0798ZM52.0651 42.9298L59.5804 58.6385H52.3759H52.0086H45.4539L52.0651 42.9298V42.9298V42.9298Z" fill="white"/>
</g>
<defs>
<clipPath id="clip0_6_28">
<rect width="104" height="104" rx="52" fill="white"/>
</clipPath>
</defs>
</svg>
