<svg width="104" height="104" viewBox="0 0 104 104" fill="none" xmlns="http://www.w3.org/2000/svg">
<g clip-path="url(#clip0_7_98)">
<path fill-rule="evenodd" clip-rule="evenodd" d="M0 0H104V104H0V0V0Z" fill="white"/>
<path d="M33.672 53.1416C33.672 54.1753 33.7838 55.0134 33.9794 55.6281C34.2029 56.2427 34.4822 56.9132 34.8734 57.6396C35.0131 57.8631 35.0689 58.0866 35.0689 58.2821C35.0689 58.5615 34.9013 58.8409 34.5381 59.1203L32.7781 60.2936C32.5266 60.4613 32.2752 60.5451 32.0517 60.5451C31.7723 60.5451 31.4929 60.4054 31.2135 60.154C30.8224 59.7349 30.4872 59.2879 30.2078 58.8409C29.9284 58.366 29.649 57.8351 29.3417 57.1926C27.1626 59.7628 24.4247 61.048 21.1281 61.048C18.7814 61.048 16.9095 60.3775 15.5406 59.0365C14.1717 57.6954 13.4732 55.9075 13.4732 53.6724C13.4732 51.2978 14.3113 49.3701 16.0155 47.9173C17.7197 46.4646 19.9827 45.7382 22.8602 45.7382C23.8101 45.7382 24.7879 45.822 25.8216 45.9617C26.8553 46.1014 27.9169 46.3249 29.0344 46.5763V44.5369C29.0344 42.4136 28.5874 40.9329 27.7214 40.0669C26.8274 39.2008 25.3187 38.7818 23.1675 38.7818C22.1897 38.7818 21.184 38.8935 20.1503 39.1449C19.1166 39.3964 18.1109 39.7037 17.133 40.0948C16.686 40.2904 16.3508 40.4021 16.1552 40.458C15.9597 40.5139 15.82 40.5418 15.7082 40.5418C15.3171 40.5418 15.1215 40.2624 15.1215 39.6758V38.3068C15.1215 37.8598 15.1774 37.5246 15.3171 37.329C15.4568 37.1334 15.7082 36.9379 16.0994 36.7423C17.0772 36.2394 18.2505 35.8204 19.6195 35.4851C20.9884 35.1219 22.4412 34.9543 23.9777 34.9543C27.3023 34.9543 29.7329 35.7086 31.2974 37.2173C32.8339 38.7259 33.6162 41.0168 33.6162 44.0899V53.1416H33.672ZM22.3294 57.3881C23.2514 57.3881 24.2012 57.2205 25.207 56.8853C26.2127 56.55 27.1067 55.9354 27.861 55.0973C28.308 54.5664 28.6433 53.9798 28.8109 53.3093C28.9785 52.6388 29.0903 51.8286 29.0903 50.8787V49.7053C28.2801 49.5098 27.414 49.3421 26.52 49.2304C25.626 49.1186 24.76 49.0628 23.8939 49.0628C22.0221 49.0628 20.6532 49.4259 19.7312 50.1803C18.8093 50.9346 18.3623 51.9962 18.3623 53.3931C18.3623 54.7061 18.6975 55.6839 19.396 56.3544C20.0665 57.0529 21.0443 57.3881 22.3294 57.3881ZM44.7632 60.4054C44.2604 60.4054 43.9251 60.3216 43.7016 60.126C43.4781 59.9584 43.2826 59.5673 43.1149 59.0365L36.5496 37.4408C36.382 36.882 36.2982 36.5188 36.2982 36.3233C36.2982 35.8763 36.5217 35.6248 36.9687 35.6248H39.7066C40.2374 35.6248 40.6006 35.7086 40.7961 35.9042C41.0196 36.0718 41.1872 36.4629 41.3549 36.9938L46.0484 55.4884L50.4066 36.9938C50.5463 36.435 50.7139 36.0718 50.9374 35.9042C51.1609 35.7366 51.5521 35.6248 52.0549 35.6248H54.2899C54.8208 35.6248 55.1839 35.7086 55.4074 35.9042C55.6309 36.0718 55.8265 36.4629 55.9383 36.9938L60.3524 55.7119L65.1856 36.9938C65.3532 36.435 65.5488 36.0718 65.7443 35.9042C65.9678 35.7366 66.331 35.6248 66.8339 35.6248H69.4321C69.8791 35.6248 70.1305 35.8483 70.1305 36.3233C70.1305 36.4629 70.1026 36.6026 70.0746 36.7703C70.0467 36.9379 69.9908 37.1614 69.8791 37.4687L63.1461 59.0644C62.9785 59.6231 62.7829 59.9863 62.5594 60.154C62.3359 60.3216 61.9728 60.4333 61.4978 60.4333H59.0952C58.5644 60.4333 58.2012 60.3495 57.9777 60.154C57.7542 59.9584 57.5586 59.5952 57.4469 59.0365L53.1166 41.0168L48.8142 59.0085C48.6745 59.5673 48.5069 59.9305 48.2834 60.126C48.0599 60.3216 47.6687 60.4054 47.1659 60.4054H44.7632ZM80.663 61.1597C79.2102 61.1597 77.7575 60.9921 76.3606 60.6568C74.9637 60.3216 73.8741 59.9584 73.1478 59.5393C72.7008 59.2879 72.3935 59.0085 72.2817 58.7571C72.17 58.5056 72.1141 58.2263 72.1141 57.9748V56.55C72.1141 55.9633 72.3376 55.684 72.7566 55.684C72.9243 55.684 73.0919 55.7119 73.2595 55.7678C73.4271 55.8236 73.6786 55.9354 73.958 56.0471C74.9078 56.4662 75.9415 56.8014 77.0311 57.0249C78.1486 57.2484 79.2381 57.3602 80.3556 57.3602C82.1157 57.3602 83.4846 57.0529 84.4345 56.4383C85.3844 55.8236 85.8873 54.9296 85.8873 53.7842C85.8873 53.0019 85.6358 52.3594 85.133 51.8286C84.6301 51.2978 83.6802 50.8228 82.3113 50.3758L78.2603 49.1186C76.2209 48.4761 74.7123 47.5262 73.7903 46.269C72.8684 45.0398 72.3935 43.6708 72.3935 42.2181C72.3935 41.0447 72.6449 40.011 73.1478 39.117C73.6506 38.223 74.3211 37.4408 75.1593 36.8261C75.9974 36.1836 76.9473 35.7086 78.0648 35.3734C79.1823 35.0381 80.3556 34.8984 81.5849 34.8984C82.1995 34.8984 82.8421 34.9264 83.4567 35.0102C84.0993 35.094 84.686 35.2058 85.2726 35.3175C85.8314 35.4572 86.3622 35.5969 86.8651 35.7645C87.368 35.9321 87.7591 36.0998 88.0385 36.2674C88.4296 36.4909 88.709 36.7144 88.8766 36.9658C89.0442 37.1893 89.128 37.4966 89.128 37.8878V39.2008C89.128 39.7875 88.9045 40.0948 88.4855 40.0948C88.262 40.0948 87.8988 39.9831 87.4238 39.7596C85.8314 39.0332 84.0434 38.67 82.0598 38.67C80.4674 38.67 79.2102 38.9214 78.3441 39.4523C77.4781 39.9831 77.0311 40.7933 77.0311 41.9387C77.0311 42.7209 77.3105 43.3914 77.8692 43.9223C78.428 44.4531 79.4616 44.9839 80.9423 45.4588L84.9095 46.716C86.921 47.3586 88.3737 48.2526 89.2398 49.398C90.1058 50.5434 90.5249 51.8565 90.5249 53.3093C90.5249 54.5106 90.2735 55.6001 89.7985 56.55C89.2957 57.4999 88.6252 58.338 87.7591 59.0085C86.893 59.707 85.8593 60.2098 84.658 60.573C83.4008 60.9641 82.0878 61.1597 80.663 61.1597Z" fill="#252F3E"/>
<path d="M85.9431 74.7372C76.7517 81.526 63.3976 85.13 51.9152 85.13C35.8232 85.13 21.3236 79.1793 10.3721 69.2894C9.50608 68.5072 10.2883 67.4455 11.322 68.0602C23.1675 74.9328 37.7788 79.0955 52.893 79.0955C63.0902 79.0955 74.2932 76.9722 84.6021 72.614C86.1387 71.9155 87.4518 73.6197 85.9431 74.7372ZM89.7706 70.379C88.5972 68.8703 82.0039 69.6526 79.0146 70.0158C78.1206 70.1275 77.9809 69.3453 78.7911 68.7586C84.0434 65.0708 92.6761 66.1325 93.6818 67.3617C94.6876 68.6189 93.4024 77.2516 88.4854 81.3863C87.7311 82.0289 87.0048 81.6937 87.34 80.8555C88.4575 78.0897 90.9439 71.8597 89.7706 70.379Z" fill="#FF9900"/>
</g>
<defs>
<clipPath id="clip0_7_98">
<rect width="104" height="104" rx="52" fill="white"/>
</clipPath>
</defs>
</svg>
