<svg width="104" height="104" viewBox="0 0 104 104" fill="none" xmlns="http://www.w3.org/2000/svg">
<g clip-path="url(#clip0_5_48)">
<path fill-rule="evenodd" clip-rule="evenodd" d="M0 0H104V104H0V0V0Z" fill="white"/>
<path d="M20.2718 23.5549C19.6092 23.5463 18.9768 23.8312 18.5441 24.3331C18.1114 24.835 17.9229 25.5025 18.0289 26.1565L27.5497 83.9538C27.7945 85.4138 29.0523 86.4872 30.5326 86.4994H76.2075C77.3186 86.5137 78.2726 85.7123 78.4503 84.6155L87.9711 26.1678C88.0771 25.5137 87.8886 24.8462 87.4559 24.3443C87.0232 23.8424 86.3908 23.5575 85.7282 23.5661L20.2718 23.5549ZM60.362 65.3273H45.7837L41.8364 44.7046H63.8945L60.362 65.3273Z" fill="#2684FF"/>
<path d="M84.8858 44.6754H63.8538L60.3242 65.2816H45.7575L28.5576 85.6973C29.1028 86.1688 29.7979 86.4309 30.5185 86.4369H76.1682C77.2784 86.4512 78.2317 85.6504 78.4092 84.5544L84.8858 44.6754Z" fill="url(#paint0_linear_5_48)"/>
</g>
<defs>
<linearGradient id="paint0_linear_5_48" x1="89.7488" y1="50.4461" x2="65.4533" y2="84.9425" gradientUnits="userSpaceOnUse">
<stop offset="0.18" stop-color="#0052CC"/>
<stop offset="1" stop-color="#2684FF"/>
</linearGradient>
<clipPath id="clip0_5_48">
<rect width="104" height="104" rx="52" fill="white"/>
</clipPath>
</defs>
</svg>
