<svg width="104" height="104" viewBox="0 0 104 104" fill="none" xmlns="http://www.w3.org/2000/svg">
<g clip-path="url(#clip0_7_134)">
<path fill-rule="evenodd" clip-rule="evenodd" d="M0 0H104V104H0V0V0Z" fill="white"/>
<path d="M52.5001 52.8265V60.6552C65.7694 60.6552 76.1009 47.8361 71.7603 33.9315C69.8634 27.8551 65.0351 23.0268 58.9587 21.1299C45.054 16.7893 32.2348 27.1211 32.2348 40.3903H40.0814C40.0826 40.3903 40.0835 40.3882 40.0835 40.3882C40.0846 32.0608 48.3259 25.6227 57.0809 28.7996C60.3245 29.9767 62.9117 32.5634 64.0894 35.8067C67.2668 44.5567 60.8384 52.7946 52.518 52.8064V45.003C52.518 45.003 52.5174 45.0026 52.5167 45.0026H44.6942C44.6935 45.0026 44.6928 45.0037 44.6928 45.0037V52.8265H52.5001ZM44.6914 58.839H38.681L38.6796 58.8376V52.8265H44.6928V58.8376C44.6928 58.8376 44.6921 58.839 44.6914 58.839ZM38.6837 52.8265H33.6451C33.6431 52.8265 33.6415 52.8251 33.6415 52.8251V47.7888C33.6415 47.7888 33.6431 47.7851 33.6451 47.7851H38.68C38.6821 47.7851 38.6837 47.7867 38.6837 47.7867V52.8265Z" fill="#0080FF"/>
<path d="M19.0021 68.5964C17.982 67.8886 16.7125 67.5298 15.2291 67.5298H12V77.7745H15.2291C16.7088 77.7745 17.9787 77.3958 19.0032 76.6496C19.5608 76.2539 19.9988 75.701 20.3053 75.0067C20.6103 74.3161 20.765 73.5014 20.765 72.5857C20.765 71.6804 20.6103 70.8763 20.3051 70.1954C19.9988 69.5113 19.5603 68.9733 19.0021 68.5964ZM13.8861 69.2615H14.8995C16.0272 69.2615 16.9554 69.4832 17.6593 69.9215C18.4407 70.3926 18.8371 71.2888 18.8371 72.5857C18.8371 73.9213 18.4397 74.858 17.6565 75.3707H17.6559C16.9818 75.8166 16.0591 76.0427 14.9135 76.0427H13.8861V69.2615ZM22.0875 77.7745H23.9032V70.559H22.0875V77.7745ZM23.0127 67.4037C22.7025 67.4037 22.435 67.5137 22.2197 67.7293C22.0018 67.9368 21.8913 68.2 21.8913 68.5114C21.8913 68.8216 22.0011 69.0889 22.2183 69.3058C22.435 69.523 22.7025 69.6331 23.0127 69.6331C23.323 69.6331 23.5902 69.523 23.8074 69.3058C24.0248 69.0886 24.1347 68.8214 24.1347 68.5114C24.1347 68.2004 24.0241 67.9373 23.8074 67.7307C23.5902 67.5138 23.323 67.4037 23.0127 67.4037ZM30.497 71.1618C29.9495 70.6748 29.3382 70.3907 28.6771 70.3907C27.6749 70.3907 26.8418 70.7375 26.2013 71.4205C25.5528 72.0982 25.2237 72.9704 25.2237 74.0125C25.2237 75.0311 25.5475 75.9002 26.1876 76.5972C26.8326 77.2715 27.6703 77.6132 28.6771 77.6132C29.3771 77.6132 29.9787 77.4183 30.4691 77.0334V77.1996C30.4691 77.7982 30.3087 78.264 29.9927 78.5839C29.677 78.9034 29.239 79.0652 28.6913 79.0652C27.8532 79.0652 27.3279 78.7358 26.6883 77.8715L25.4519 79.0594L25.4853 79.1063C25.7523 79.4811 26.1614 79.8479 26.7012 80.1965C27.2412 80.5435 27.9201 80.72 28.7191 80.72C29.7972 80.72 30.6691 80.3877 31.3112 79.7325C31.9569 79.0739 32.2844 78.1919 32.2844 77.112V70.559H30.497V71.1618ZM30.0208 75.4234C29.7034 75.7837 29.296 75.9583 28.7752 75.9583C28.2547 75.9583 27.8495 75.7837 27.5368 75.4238C27.2256 75.0655 27.0675 74.5907 27.0675 74.0125C27.0675 73.4249 27.2256 72.9442 27.537 72.5834C27.8454 72.2265 28.262 72.0454 28.7752 72.0454C29.2955 72.0454 29.7032 72.2214 30.0206 72.5843C30.3368 72.9448 30.497 73.4254 30.497 74.0125C30.497 74.5905 30.3368 75.0653 30.0208 75.4234ZM33.8384 77.7745H35.6541V70.559H33.8384V77.7745ZM34.7638 67.4037C34.4534 67.4037 34.1859 67.5137 33.9705 67.7293C33.7527 67.9368 33.6421 68.2 33.6421 68.5114C33.6421 68.8216 33.752 69.0889 33.9692 69.3058C34.1859 69.523 34.4534 69.6331 34.7638 69.6331C35.0738 69.6331 35.3411 69.523 35.5585 69.3058C35.7757 69.0886 35.8855 68.8214 35.8855 68.5114C35.8855 68.2004 35.775 67.9373 35.5585 67.7307C35.3411 67.5138 35.0738 67.4037 34.7638 67.4037ZM39.6337 68.6095H37.8463V70.559H36.8082V72.2138H37.8463V75.211C37.8463 76.1489 38.0336 76.8199 38.4033 77.2053C38.774 77.5925 39.4322 77.7888 40.3597 77.7888C40.6548 77.7888 40.9517 77.7789 41.242 77.7601L41.3238 77.7545V76.1011L40.7012 76.1337C40.2689 76.1337 39.9803 76.0576 39.8431 75.9083C39.7041 75.7563 39.6337 75.4351 39.6337 74.9536V72.2138H41.3238V70.559H39.6337V68.6095ZM47.5553 71.0988H47.5551C47.0049 70.6291 46.2442 70.3907 45.2946 70.3907C44.6905 70.3907 44.1256 70.5233 43.6145 70.7826C43.1418 71.0223 42.6776 71.4194 42.3825 71.939L42.4009 71.961L43.5635 73.074C44.0424 72.3106 44.5749 72.0454 45.2809 72.0454C45.6603 72.0454 45.9751 72.1472 46.2171 72.3478C46.4577 72.547 46.5749 72.8005 46.5749 73.1218V73.4723C46.1247 73.3353 45.6757 73.2659 45.2388 73.2659C44.3352 73.2659 43.6 73.4785 43.0538 73.8976C42.5006 74.3221 42.2203 74.9293 42.2203 75.7026C42.2203 76.3805 42.4567 76.9311 42.9246 77.3407C43.3966 77.7355 43.9863 77.9361 44.6778 77.9361C45.3691 77.9361 46.0158 77.6573 46.603 77.1805V77.7745H48.3907V73.1361C48.3907 72.2577 48.1096 71.5724 47.5553 71.0988ZM44.3315 75.0173C44.5374 74.8736 44.8284 74.8013 45.1965 74.8013C45.6336 74.8013 46.0971 74.889 46.5749 75.0623V75.7701C46.1803 76.1369 45.6532 76.3231 45.0076 76.3231C44.6932 76.3231 44.4489 76.2532 44.281 76.1151C44.1162 75.98 44.036 75.8081 44.036 75.5902C44.036 75.3427 44.1327 75.1552 44.3315 75.0173ZM49.8373 77.7745H51.653V67.5298H49.8373V77.7745ZM58.2408 77.929C55.3286 77.929 52.9595 75.5599 52.9595 72.6475C52.9595 69.7353 55.3286 67.3662 58.2408 67.3662C61.1529 67.3662 63.522 69.7353 63.522 72.6475C63.522 75.5599 61.1529 77.929 58.2408 77.929ZM58.2408 69.2274C56.3549 69.2274 54.8207 70.7617 54.8207 72.6475C54.8207 74.5335 56.3549 76.0675 58.2408 76.0675C60.1266 76.0675 61.6608 74.5335 61.6608 72.6475C61.6608 70.7617 60.1266 69.2274 58.2408 69.2274ZM69.9962 75.1945C69.6715 75.5585 69.3392 75.874 69.0832 76.0381V76.0383C68.8323 76.1994 68.5153 76.2812 68.1417 76.2812C67.6067 76.2812 67.1765 76.0864 66.826 75.6851C66.4776 75.2859 66.3009 74.773 66.3009 74.1596C66.3009 73.5465 66.4753 73.0342 66.8194 72.6381C67.1652 72.2391 67.5931 72.0454 68.1277 72.0454C68.7125 72.0454 69.3291 72.4089 69.8574 73.0338L71.0575 71.8829C70.275 70.8646 69.2769 70.3907 68.0858 70.3907C67.0887 70.3907 66.2246 70.7538 65.5175 71.4697C64.8138 72.1803 64.4571 73.0855 64.4571 74.1596C64.4571 75.234 64.8136 76.1413 65.5163 76.8567C66.2198 77.5728 67.0843 77.9361 68.0858 77.9361C69.4003 77.9361 70.4614 77.3685 71.1768 76.3288L69.9962 75.1945ZM77.4483 71.5671C77.1909 71.2082 76.8402 70.9195 76.4059 70.7083C75.9727 70.4976 75.4678 70.3907 74.9054 70.3907C73.892 70.3907 73.0626 70.7646 72.4398 71.5028C71.8354 72.2352 71.5293 73.1455 71.5293 74.2088C71.5293 75.3022 71.8653 76.2075 72.5283 76.899C73.1874 77.587 74.0699 77.9361 75.1509 77.9361C76.3753 77.9361 77.38 77.4409 78.137 76.4642L78.1779 76.4115L76.9935 75.2733C76.8836 75.4057 76.7281 75.5559 76.586 75.6897C76.4068 75.8588 76.2383 75.9898 76.0582 76.0795C75.7868 76.2146 75.4825 76.2812 75.1419 76.2812C74.6389 76.2812 74.2222 76.1332 73.9037 75.8414C73.6059 75.5684 73.4317 75.2002 73.3855 74.7454H78.1959L78.2122 74.0826C78.2122 73.6136 78.1483 73.1618 78.0224 72.7394C77.8964 72.3163 77.7032 71.9217 77.4483 71.5671ZM73.4799 73.2659C73.5673 72.9207 73.7263 72.6332 73.954 72.4101C74.2002 72.1679 74.5203 72.0454 74.9059 72.0454C75.346 72.0454 75.6868 72.1704 75.9184 72.4181C76.1333 72.647 76.2544 72.932 76.2797 73.2659H73.4799ZM84.4212 71.0988H84.421C83.8708 70.6291 83.1101 70.3907 82.1605 70.3907C81.5564 70.3907 80.9915 70.5233 80.4804 70.7826C80.0075 71.0223 79.5432 71.4194 79.2484 71.939L79.2668 71.961L80.4294 73.074C80.9083 72.3106 81.4408 72.0454 82.1468 72.0454C82.5262 72.0454 82.841 72.1472 83.083 72.3478C83.3236 72.547 83.4408 72.8005 83.4408 73.1218V73.4723C82.9904 73.3353 82.5416 73.2659 82.1045 73.2659C81.2011 73.2659 80.4657 73.4785 79.9197 73.8976C79.3665 74.3221 79.0862 74.9293 79.0862 75.7026C79.0862 76.3805 79.3226 76.9311 79.7905 77.3407C80.2623 77.7355 80.8522 77.9361 81.5437 77.9361C82.235 77.9361 82.8817 77.6573 83.4686 77.1805V77.7745H85.2566V73.1361C85.2566 72.2577 84.9755 71.5724 84.4212 71.0988ZM81.1974 75.0173C81.4033 74.8736 81.6943 74.8013 82.0624 74.8013C82.4995 74.8013 82.963 74.889 83.4408 75.0623V75.7701C83.046 76.1369 82.5191 76.3231 81.8733 76.3231C81.5591 76.3231 81.3148 76.2532 81.1469 76.1151C80.9821 75.98 80.9019 75.8081 80.9019 75.5902C80.9019 75.3427 80.9986 75.1552 81.1974 75.0173ZM92.2414 71.2403C91.7356 70.6769 91.025 70.3907 90.1288 70.3907C89.4085 70.3907 88.8234 70.5976 88.3859 71.0057V70.559H86.6053V77.7745H88.421V73.7951C88.421 73.2484 88.5511 72.8143 88.8076 72.5045C89.0636 72.1957 89.4154 72.0454 89.8833 72.0454C90.2947 72.0454 90.6063 72.1796 90.8363 72.4556C91.0673 72.733 91.1843 73.1149 91.1843 73.592V77.7745H93V73.592C93 72.5926 92.7449 71.8015 92.2414 71.2403Z" fill="#0080FF"/>
</g>
<defs>
<clipPath id="clip0_7_134">
<rect width="104" height="104" rx="52" fill="white"/>
</clipPath>
</defs>
</svg>
