<svg width="104" height="104" viewBox="0 0 104 104" fill="none" xmlns="http://www.w3.org/2000/svg">
<g clip-path="url(#clip0_5_28)">
<path fill-rule="evenodd" clip-rule="evenodd" d="M0 0H104V104H0V0V0Z" fill="white"/>
<path d="M82.4788 38.6245L84.2915 39.937C87.4441 42.4798 89.2568 45.3508 89.6509 48.6319C93.0398 47.9757 97.3746 48.4679 99.2661 49.7803L101 50.8467L100.685 51.5029C100.133 52.7333 99.9754 53.0614 99.8966 53.2255C96.8229 59.3776 90.7542 59.4596 87.917 59.3776C80.7449 77.3417 65.4551 87.2671 44.806 87.2671C35.2696 87.2671 28.0187 84.2321 23.1323 78.244C16.6696 70.3693 16.6696 60.1158 17.2213 56.8347L17.3789 56.1785H74.361C77.356 56.1785 79.6415 55.3582 80.7449 54.702C79.5627 52.8974 79.1687 50.8467 79.0899 49.6983C78.8534 46.4172 79.6415 42.972 81.2178 40.5112L82.4788 38.6245ZM32.1958 46.3351V54.5379H23.5264V46.3351H32.1958ZM42.4416 46.3351V54.5379H33.7721V46.3351H42.4416ZM52.6873 46.3351V54.5379H44.0179V46.3351H52.6873ZM62.9331 46.3351V54.5379H54.2636V46.3351H62.9331ZM73.1788 46.3351V54.5379H64.5094V46.3351H73.1788ZM62.9331 36.4918V44.6946H54.2636V36.4918H62.9331ZM52.6873 36.4918V44.6946H44.0179V36.4918H52.6873ZM42.4416 36.4918V44.6946H33.7721V36.4918H42.4416ZM62.9331 26.6484V34.8512H54.2636V26.6484H62.9331Z" fill="#2396ED"/>
</g>
<defs>
<clipPath id="clip0_5_28">
<rect width="104" height="104" rx="52" fill="white"/>
</clipPath>
</defs>
</svg>
