<svg width="104" height="104" viewBox="0 0 104 104" fill="none" xmlns="http://www.w3.org/2000/svg">
<g clip-path="url(#clip0_6_161)">
<path fill-rule="evenodd" clip-rule="evenodd" d="M0 0H104V104H0V0V0Z" fill="black"/>
<path d="M40.1016 95C47.2776 95 53.1016 89.176 53.1016 82V69H40.1016C32.9256 69 27.1016 74.824 27.1016 82C27.1016 89.176 32.9256 95 40.1016 95Z" fill="#0ACF83"/>
<path d="M27.1016 56C27.1016 48.824 32.9256 43 40.1016 43H53.1016V69H40.1016C32.9256 69 27.1016 63.176 27.1016 56Z" fill="#A259FF"/>
<path d="M27.1016 30C27.1016 22.824 32.9256 17 40.1016 17H53.1016V43H40.1016C32.9256 43 27.1016 37.176 27.1016 30Z" fill="#F24E1E"/>
<path d="M53.1016 17H66.1016C73.2776 17 79.1016 22.824 79.1016 30C79.1016 37.176 73.2776 43 66.1016 43H53.1016V17Z" fill="#FF7262"/>
<path d="M79.1016 56C79.1016 63.176 73.2776 69 66.1016 69C58.9256 69 53.1016 63.176 53.1016 56C53.1016 48.824 58.9256 43 66.1016 43C73.2776 43 79.1016 48.824 79.1016 56Z" fill="#1ABCFE"/>
</g>
<defs>
<clipPath id="clip0_6_161">
<rect width="104" height="104" rx="52" fill="white"/>
</clipPath>
</defs>
</svg>
