<svg width="104" height="104" viewBox="0 0 104 104" fill="none" xmlns="http://www.w3.org/2000/svg">
<g clip-path="url(#clip0_6_248)">
<path fill-rule="evenodd" clip-rule="evenodd" d="M0 0H104V104H0V0V0Z" fill="black"/>
<path d="M21.7578 81.4163L22.2784 80.6872L46.9067 33.9563L46.9587 33.4616L36.102 13.069C35.1925 11.3608 32.6318 11.7927 32.3333 13.7049L21.7578 81.4163Z" fill="#FFC24A"/>
<path d="M22.0649 80.8603L22.4587 80.0924L46.8289 33.8511L35.9994 13.3755C35.0994 11.6852 32.8138 12.1161 32.5184 14.0083L22.0649 80.8603Z" fill="#FFA712"/>
<path d="M54.8733 48.8868L62.9568 40.608L54.8709 25.1719C54.1034 23.7108 51.9602 23.7065 51.2007 25.1719L46.8808 33.4109V34.1125L54.8733 48.8868Z" fill="#F4BD62"/>
<path d="M54.7291 48.5417L62.5878 40.4932L54.7291 25.5288C53.9828 24.1083 52.1699 23.9595 51.4316 25.3841L47.0887 33.7507L46.9589 34.1784L54.7291 48.5417Z" fill="#FFA50E"/>
<path d="M21.7578 81.4164L21.9938 81.1791L22.8512 80.8306L54.3654 49.4336L54.7647 48.3467L46.9032 33.366L21.7578 81.4164Z" fill="#F6820C"/>
<path d="M55.8826 97.2505L84.4036 81.3441L76.259 31.1839C76.0042 29.6145 74.0788 28.994 72.9556 30.1193L21.7578 81.4163L50.1153 97.2491C51.9074 98.2498 54.09 98.2502 55.8826 97.2505Z" fill="#FDE068"/>
<path d="M84.148 81.2109L76.0652 31.4314C75.8124 29.8739 74.2113 29.2295 73.0966 30.3462L22.074 81.319L50.12 96.9951C51.8985 97.9882 54.0646 97.9886 55.8436 96.9965L84.148 81.2109Z" fill="#FCCA3F"/>
<path d="M55.8826 96.7818C54.09 97.7815 51.9074 97.7811 50.1153 96.7804L21.9862 81.175L21.7578 81.4162L50.1153 97.249C51.9074 98.2497 54.09 98.2502 55.8826 97.2504L84.4036 81.344L84.3338 80.9143L55.8826 96.7818Z" fill="#EEAB37"/>
</g>
<defs>
<clipPath id="clip0_6_248">
<rect width="104" height="104" rx="52" fill="white"/>
</clipPath>
</defs>
</svg>
