<svg width="104" height="104" viewBox="0 0 104 104" fill="none" xmlns="http://www.w3.org/2000/svg">
<g clip-path="url(#clip0_5_77)">
<path fill-rule="evenodd" clip-rule="evenodd" d="M0 0H104V104H0V0V0Z" fill="black"/>
<path fill-rule="evenodd" clip-rule="evenodd" d="M91.4534 48.3471L55.6509 12.5466C53.5906 10.4845 50.2463 10.4845 48.1833 12.5466L40.7489 19.9811L50.1798 29.4122C52.3715 28.6717 54.8844 29.1683 56.6316 30.9156C58.387 32.6737 58.88 35.2083 58.1216 37.4072L67.2105 46.4963C69.4094 45.7387 71.9466 46.2291 73.7029 47.9881C76.1573 50.4417 76.1573 54.4185 73.7029 56.8739C71.2475 59.3292 67.2708 59.3292 64.8146 56.8739C62.9683 55.0258 62.5122 52.314 63.447 50.0395L54.9708 41.5631L54.9699 63.8693C55.5682 64.1662 56.1332 64.5612 56.6316 65.0578C59.0861 67.5114 59.0861 71.4882 56.6316 73.9454C54.1763 76.3999 50.1978 76.3999 47.746 73.9454C45.2916 71.4882 45.2916 67.5114 47.746 65.0578C48.3524 64.4523 49.0542 63.9944 49.8028 63.6866V41.1726C49.0542 40.8667 48.3533 40.4114 47.746 39.8014C45.8863 37.9443 45.4391 35.2155 46.392 32.9319L37.0961 23.6341L12.5473 48.1815C10.4842 50.2455 10.4842 53.5898 12.5473 55.652L48.3497 91.4534C50.411 93.5155 53.7543 93.5155 55.8183 91.4534L91.4534 55.8185C93.5155 53.7554 93.5155 50.4093 91.4534 48.3471" fill="#DE4C36"/>
</g>
<defs>
<clipPath id="clip0_5_77">
<rect width="104" height="104" rx="52" fill="white"/>
</clipPath>
</defs>
</svg>
