<svg width="104" height="104" viewBox="0 0 104 104" fill="none" xmlns="http://www.w3.org/2000/svg">
<g clip-path="url(#clip0_3_2)">
<path fill-rule="evenodd" clip-rule="evenodd" d="M0 0H104V104H0V0Z" fill="#F7DF1E"/>
<path fill-rule="evenodd" clip-rule="evenodd" d="M29.0001 75.7553L35.2581 71.8499C36.4654 74.0573 37.5637 75.9249 40.198 75.9249C42.7232 75.9249 44.3152 74.9063 44.3152 70.9443V44H52V71.0563C52 79.2641 47.3344 83 40.5275 83C34.3799 83 30.8114 79.7168 29 75.7546" fill="black"/>
<path fill-rule="evenodd" clip-rule="evenodd" d="M60 74.9986L66.3199 71.3056C67.9836 74.0476 70.1458 76.0618 73.9711 76.0618C77.1872 76.0618 79.238 74.439 79.238 72.2008C79.238 69.515 77.1313 68.5637 73.5829 66.9975L71.643 66.1576C66.043 63.7521 62.3282 60.7306 62.3282 54.3517C62.3282 48.4765 66.7635 44 73.6941 44C78.6285 44 82.1768 45.7347 84.7268 50.2671L78.6836 54.1837C77.3529 51.7778 75.9118 50.8268 73.6942 50.8268C71.4211 50.8268 69.9795 52.2815 69.9795 54.1837C69.9795 56.5338 71.4211 57.4852 74.7472 58.9401L76.6875 59.7794C83.2852 62.6332 87 65.5425 87 72.0889C87 79.1395 81.5113 83 74.1376 83C66.9302 83 62.2729 79.531 60.0001 74.9986" fill="black"/>
</g>
<defs>
<clipPath id="clip0_3_2">
<rect width="104" height="104" rx="52" fill="white"/>
</clipPath>
</defs>
</svg>
