<svg width="104" height="104" viewBox="0 0 104 104" fill="none" xmlns="http://www.w3.org/2000/svg">
<g clip-path="url(#clip0_3_51)">
<path fill-rule="evenodd" clip-rule="evenodd" d="M0 0H104V104H0V0Z" fill="white"/>
<g clip-path="url(#clip1_3_51)">
<path d="M41.8863 69.3217C41.8863 69.3217 38.9056 71.055 44.0076 71.6416C50.1885 72.3467 53.3475 72.2456 60.1589 70.9564C60.1589 70.9564 61.9496 72.0793 64.4506 73.0519C49.1812 79.596 29.893 72.6728 41.8863 69.3217Z" fill="#5382A1"/>
<path d="M40.0209 60.782C40.0209 60.782 36.6777 63.2567 41.7835 63.7848C48.3861 64.4659 53.6004 64.5216 62.623 62.7843C62.623 62.7843 63.871 64.0495 65.8333 64.7413C47.3717 70.1398 26.8089 65.1671 40.0209 60.782Z" fill="#5382A1"/>
<path d="M55.7502 46.2957C59.5126 50.6273 54.7617 54.5253 54.7617 54.5253C54.7617 54.5253 64.315 49.5936 59.9276 43.418C55.8299 37.6588 52.6875 34.7973 69.6991 24.9312C69.6991 24.9312 42.9965 31.6002 55.7502 46.2957Z" fill="#E76F00"/>
<path d="M75.9452 75.6382C75.9452 75.6382 78.151 77.4557 73.5159 78.8618C64.7023 81.5317 36.8324 82.338 29.0903 78.9681C26.3072 77.7574 31.5263 76.0772 33.168 75.7246C34.8802 75.3534 35.8586 75.4225 35.8586 75.4225C32.7636 73.2422 15.8533 79.7038 27.2691 81.5542C58.4015 86.603 84.0205 79.2808 75.9452 75.6382Z" fill="#5382A1"/>
<path d="M43.3202 51.9338C43.3202 51.9338 29.1438 55.301 38.3 56.5237C42.166 57.0413 49.8728 56.9242 57.0515 56.3227C62.9183 55.8278 68.8093 54.7756 68.8093 54.7756C68.8093 54.7756 66.7406 55.6615 65.2439 56.6835C50.8481 60.4696 23.038 58.7082 31.0441 54.8355C37.815 51.5626 43.3202 51.9338 43.3202 51.9338Z" fill="#5382A1"/>
<path d="M68.7506 66.1486C83.3846 58.5442 76.6184 51.2364 71.8957 52.2209C70.7382 52.4619 70.222 52.6706 70.222 52.6706C70.222 52.6706 70.6518 51.9974 71.4725 51.7061C80.8156 48.4213 88.001 61.3939 68.4565 66.5318C68.4565 66.532 68.6829 66.3296 68.7506 66.1486Z" fill="#5382A1"/>
<path d="M59.928 9C59.928 9 68.0325 17.1073 52.2411 29.574C39.578 39.5745 49.3536 45.2765 52.2359 51.7912C44.8442 45.1222 39.4197 39.2514 43.0589 33.7873C48.4004 25.7667 63.198 21.8779 59.928 9Z" fill="#E76F00"/>
<path d="M44.7578 86.7548C58.8046 87.654 80.3751 86.256 80.886 79.6094C80.886 79.6094 79.904 82.129 69.277 84.1301C57.2878 86.3863 42.5007 86.1229 33.7303 84.6769C33.7305 84.6767 35.5257 86.1628 44.7578 86.7548Z" fill="#5382A1"/>
</g>
</g>
<defs>
<clipPath id="clip0_3_51">
<rect width="104" height="104" rx="52" fill="white"/>
</clipPath>
<clipPath id="clip1_3_51">
<rect width="78" height="78" fill="white" transform="translate(13 9)"/>
</clipPath>
</defs>
</svg>
