<svg width="104" height="104" viewBox="0 0 104 104" fill="none" xmlns="http://www.w3.org/2000/svg">
<g clip-path="url(#clip0_5_112)">
<path fill-rule="evenodd" clip-rule="evenodd" d="M0 0H104V104H0V0V0Z" fill="black"/>
<g clip-path="url(#clip1_5_112)">
<path d="M76.1131 42.0435C78.6402 41.5081 84.3633 37.2234 85.3574 34.9549C77.1281 40.5277 71.8955 38.9651 69.2574 38.1772C69.1451 38.1437 69.0375 38.1115 68.9345 38.0814C68.3793 37.9232 67.0945 37.3492 65.8973 36.6331C65.8143 36.5835 65.7327 36.5347 65.6523 36.4867C63.1558 34.9953 61.8611 34.2218 59.8554 31.32C58.7179 29.6757 57.5812 27.0623 57.2082 25.5647C56.5926 23.0886 56.7631 19.2793 57.9332 16C54.0493 19.449 53.4507 26.1117 54.7525 30.5167C54.9177 31.0746 55.8404 33.2659 56.3398 34.0691C59.6965 39.4425 66.1059 44.1646 76.1131 42.0435Z" fill="#21609B"/>
<path d="M68.9731 57.0248C75.367 57.0687 82.0455 54.095 86 49.9199C82.5402 58.6598 72.5221 64.2777 59.0868 62.4907C47.8381 60.9931 37.1222 49.7286 36.018 38.4417C35.2108 30.2274 38.0883 25.3247 42.8291 19.378C41.1814 22.4883 40.5657 24.8872 40.4122 26.4173C38.6109 44.1862 54.6764 56.9322 68.9731 57.0248Z" fill="#21609B"/>
<path d="M84.3523 67.9566L84.0343 68.7761C78.6182 79.2697 69.0227 85.7087 55.3354 85.9926C48.9368 86.1238 42.8399 84.4903 38.8575 82.7133C30.2622 78.8708 23.0332 71.7444 19.0849 64.1303C13.4214 53.2154 12.4002 38.032 24.1761 26.6911C24.2669 26.6911 23.9098 27.3059 23.5527 27.9207C23.1957 28.5354 22.8386 29.1502 22.9293 29.1502L22.6052 30.1996C14.1193 56.6366 40.2633 79.2921 65.6776 76.7011C71.7854 76.0784 79.5743 72.7498 84.3523 67.9566Z" fill="#21609B"/>
</g>
</g>
<defs>
<clipPath id="clip0_5_112">
<rect width="104" height="104" rx="52" fill="white"/>
</clipPath>
<clipPath id="clip1_5_112">
<rect width="512" height="512" fill="white" transform="translate(9 23)"/>
</clipPath>
</defs>
</svg>
