<svg width="104" height="104" viewBox="0 0 104 104" fill="none" xmlns="http://www.w3.org/2000/svg">
<g clip-path="url(#clip0_6_65)">
<path fill-rule="evenodd" clip-rule="evenodd" d="M0 0H104V104H0V0V0Z" fill="black"/>
<path fill-rule="evenodd" clip-rule="evenodd" d="M53.0744 94.8634C51.946 94.8634 50.8929 94.5625 49.915 94.036L39.9105 88.0934C38.4061 87.266 39.1583 86.9651 39.6096 86.8147C41.6406 86.1377 42.0167 85.9872 44.123 84.7837C44.3486 84.6332 44.6495 84.7085 44.8752 84.8589L52.5478 89.4474C52.8487 89.5979 53.2248 89.5979 53.4505 89.4474L83.464 72.0712C83.7649 71.9207 83.9153 71.6199 83.9153 71.2437V36.5664C83.9153 36.1903 83.7649 35.8894 83.464 35.739L53.4505 18.438C53.1496 18.2875 52.7735 18.2875 52.5478 18.438L22.5343 35.739C22.2334 35.8894 22.0829 36.2656 22.0829 36.5664V71.2437C22.0829 71.5446 22.2334 71.9207 22.5343 72.0712L30.7335 76.8102C35.1716 79.0668 37.9548 76.434 37.9548 73.8013V39.5753C37.9548 39.124 38.3309 38.6727 38.8574 38.6727H42.6937C43.1451 38.6727 43.5964 39.0488 43.5964 39.5753V73.8013C43.5964 79.7438 40.3619 83.204 34.7202 83.204C32.9901 83.204 31.6361 83.204 27.7998 81.3235L19.9015 76.8102C17.9457 75.6818 16.7422 73.5756 16.7422 71.319V36.6417C16.7422 34.385 17.9457 32.2788 19.9015 31.1505L49.915 13.7742C51.7956 12.7211 54.3531 12.7211 56.2337 13.7742L86.2472 31.1505C88.203 32.2788 89.4065 34.385 89.4065 36.6417V71.319C89.4065 73.5756 88.203 75.6818 86.2472 76.8102L56.2337 94.1864C55.2558 94.6378 54.1275 94.8634 53.0744 94.8634ZM62.3267 71.0181C49.1628 71.0181 46.4548 65.0003 46.4548 59.8852C46.4548 59.4339 46.831 58.9826 47.3575 58.9826H51.269C51.7204 58.9826 52.0965 59.2835 52.0965 59.7348C52.6983 63.7215 54.4284 65.6773 62.4019 65.6773C68.7205 65.6773 71.4285 64.2481 71.4285 60.8631C71.4285 58.9073 70.6763 57.4781 60.8222 56.5002C52.623 55.6728 47.5079 53.8675 47.5079 47.3232C47.5079 41.2302 52.623 37.6195 61.1983 37.6195C70.8267 37.6195 75.5657 40.9293 76.1675 48.1506C76.1675 48.3763 76.0923 48.6019 75.9418 48.8276C75.7914 48.9781 75.5657 49.1285 75.3401 49.1285H71.4285C71.0524 49.1285 70.6763 48.8276 70.6011 48.4515C69.6984 44.3143 67.3665 42.9603 61.1983 42.9603C54.2779 42.9603 53.4505 45.3674 53.4505 47.1727C53.4505 49.3542 54.4284 50.0312 63.7559 51.2347C73.0082 52.4383 77.371 54.1684 77.371 60.6374C77.2958 67.257 71.8798 71.0181 62.3267 71.0181Z" fill="#539E43"/>
</g>
<defs>
<clipPath id="clip0_6_65">
<rect width="104" height="104" rx="52" fill="white"/>
</clipPath>
</defs>
</svg>
