<svg width="104" height="104" viewBox="0 0 104 104" fill="none" xmlns="http://www.w3.org/2000/svg">
<g clip-path="url(#clip0_6_151)">
<path fill-rule="evenodd" clip-rule="evenodd" d="M0 0H104V104H0V0V0Z" fill="black"/>
<g clip-path="url(#clip1_6_151)">
<path d="M-5 36.7048C-5 21.7567 -5 14.2827 -2.09091 8.57325C0.467994 3.55112 4.55112 -0.532006 9.57325 -3.09091C15.2827 -6 22.7567 -6 37.7048 -6H70.2952C85.2433 -6 92.7173 -6 98.4267 -3.09091C103.449 -0.532006 107.532 3.55112 110.091 8.57325C113 14.2827 113 21.7567 113 36.7048V69.2952C113 84.2433 113 91.7173 110.091 97.4267C107.532 102.449 103.449 106.532 98.4267 109.091C92.7173 112 85.2433 112 70.2952 112H37.7048C22.7567 112 15.2827 112 9.57325 109.091C4.55112 106.532 0.467994 102.449 -2.09091 97.4267C-5 91.7173 -5 84.2433 -5 69.2952V36.7048Z" fill="#001E36"/>
<path d="M20.2857 80.4614V28.5716C20.2857 28.2186 20.4332 28.0169 20.7774 28.0169C25.8583 28.0169 30.9368 27.7144 36.0191 27.7144C44.2657 27.7144 53.195 30.5341 56.3249 39.1614C57.0624 41.2793 57.4557 43.4477 57.4557 45.7169C57.4557 50.0537 56.4724 53.634 54.5057 56.458C49.012 64.3463 39.4902 64.2238 30.9549 64.2238V80.411C31.0216 80.8902 30.6133 81.1169 30.2174 81.1169H20.8757C20.4824 81.1169 20.2857 80.9152 20.2857 80.4614ZM31.0041 37.7494V54.693C34.3883 54.9409 37.9298 54.9678 41.1816 53.8862C44.7714 52.8506 46.7374 49.7431 46.7374 46.0195C46.8372 42.8465 45.1082 39.8021 42.1649 38.6571C38.9523 37.3213 34.4719 37.2413 31.0041 37.7494Z" fill="#31A8FF"/>
<path d="M88.1217 51.3454C86.634 50.5614 85.0496 49.9879 83.4117 49.6404C81.3069 49.1452 73.0055 47.4107 73.0024 51.7514C73.0761 54.1747 76.9228 55.362 78.6225 56.0543C84.5893 58.1028 91.3415 61.7646 91.2088 69.1256C91.3912 78.2892 82.5127 81.9524 74.9021 81.9533C70.9401 81.9944 66.8126 81.3807 63.1866 79.68C62.8405 79.4967 62.6177 79.1049 62.6325 78.7057V69.9374C62.5935 69.5859 62.9708 69.2786 63.2658 69.5315C66.8186 71.6801 71.0297 72.7232 75.1396 72.779C76.9539 72.779 80.5497 72.6031 80.5224 69.9374C80.5224 67.3793 76.2209 66.2031 74.5063 65.5532C72.0207 64.666 69.6641 63.437 67.5007 61.8998C64.4775 59.7434 62.5809 56.2858 62.6326 52.482C62.6149 43.8538 70.7875 39.9809 78.1477 39.9791C81.5885 39.9507 85.2833 40.2055 88.4863 41.6028C88.9469 41.7384 89.0424 42.2235 89.0404 42.6583V50.8583C89.0696 51.3673 88.5043 51.5406 88.1217 51.3454Z" fill="#31A8FF"/>
</g>
</g>
<defs>
<clipPath id="clip0_6_151">
<rect width="104" height="104" rx="52" fill="white"/>
</clipPath>
<clipPath id="clip1_6_151">
<rect width="118" height="118" fill="white" transform="translate(-5 -6)"/>
</clipPath>
</defs>
</svg>
