<svg width="104" height="104" viewBox="0 0 104 104" fill="none" xmlns="http://www.w3.org/2000/svg">
<g clip-path="url(#clip0_3_233)">
<path fill-rule="evenodd" clip-rule="evenodd" d="M0 0H104V104H0V0Z" fill="#CB5BAC"/>
<circle cx="51.5" cy="52.5" r="42.5" fill="white"/>
<path fill-rule="evenodd" clip-rule="evenodd" d="M35.0428 64.8034C33.4444 65.8073 31.0361 67.4336 29.1729 69.2025C26.1143 72.1033 25.4742 76.1271 27.0877 77.0672C28.5803 77.9361 32.0649 76.9021 34.5588 74.1705C37.1761 71.3024 38.2555 67.6666 37.1407 63.5392C37.0097 63.6176 36.8812 63.6963 36.755 63.7695L36.7578 63.775L36.5887 63.8713C35.9379 64.2614 35.4062 64.5831 35.0428 64.8034ZM79.961 63.5012C79.0555 65.4772 79.0102 66.1131 79.2852 66.3109C80.599 65.837 82.7725 64.6946 82.7897 61.6336C82.7924 61.1752 82.6917 60.6832 82.5302 60.1692C81.1256 61.4182 80.3161 62.7259 79.961 63.5012ZM94.0582 57.5266C90.5485 57.1158 87.8098 57.6101 85.6844 58.4994C86.078 59.5281 86.3805 60.5997 86.4231 61.6792C86.5218 64.0484 84.8979 65.8017 83.2056 67.0535C82.2173 67.7833 81.1658 68.2697 80.2831 68.5635C79.5773 68.8624 78.6392 69.1714 77.9734 69.035C76.5056 68.7354 75.7243 67.426 76.7228 64.5376C77.2622 62.9744 78.818 60.5949 81.3294 58.5453C80.7571 57.3619 80.1191 56.1561 79.7939 55.0483C79.1532 52.8645 78.9596 51.5443 78.9596 51.5443C78.9596 51.5443 76.8896 55.8544 74.219 59.7739C74.065 60.0018 73.9113 60.2251 73.7573 60.4478C74.2819 61.6719 74.6951 62.9665 74.7511 64.2718C74.8494 66.6406 73.8281 68.4319 72.1334 69.6809C71.216 70.3603 70.2373 70.8295 69.3975 71.1281C68.8606 71.3635 67.7685 71.7508 66.2154 71.8551C65.366 71.9134 64.5489 71.8606 64.0928 71.5133C63.4648 71.0369 63.3891 70.449 63.7143 69.6457C63.9893 68.9639 66.0467 66.6054 67.7716 64.5403C68.248 63.97 68.7018 63.3873 69.1078 62.8477L69.0978 62.8246C69.0978 62.8246 69.4103 62.4197 69.9173 61.7127C69.2868 60.3494 68.4876 58.9302 68.1119 57.6433C67.4712 55.4594 67.2773 54.139 67.2773 54.139C67.2773 54.139 65.179 59.5413 62.9931 63.8537C61.3015 67.1936 60.1716 69.2177 59.6625 70.1045L59.6574 70.1401C59.6574 70.1401 59.5814 70.2695 59.4504 70.4722L59.3525 70.6365L59.3497 70.6213C58.7822 71.4629 57.5089 73.112 56.2432 73.112C52.7686 73.112 54.0443 66.0251 54.0443 66.0251C54.0443 66.0251 53.0285 68.6501 51.8835 70.9026C50.9509 72.7395 50.1011 74.2958 48.2428 74.2958C47.7083 74.2958 46.8609 74.2802 46.1573 73.6084C44.5613 72.0857 43.3409 68.2189 43.5802 65.2242C43.7844 62.6779 44.1752 60.9142 44.7098 59.4425C43.7565 59.9642 42.6548 60.5828 41.5328 61.2442L39.8079 62.265L39.8636 62.3665C41.2905 65.1386 41.6713 71.212 38.5597 75.8741C35.4484 80.5386 29.6566 83.3767 24.0136 81.8007C22.1927 81.2912 19.4421 77.5083 21.8146 72.2355C23.9074 67.5858 32.2712 63.1898 34.4753 62.0928L35.0803 61.7582C30.6858 57.8967 19.7119 52.6874 18.174 44.6856C17.7402 42.4331 18.7917 37.0463 25.3776 30.8539C30.9171 25.647 38.623 21.6587 45.7413 19.1172C57.7004 14.848 70.336 17.3663 72.2799 25.0235C74.1911 32.5541 67.686 41.5618 59.3549 44.7999C51.9165 47.6907 45.7664 47.2323 43.2399 46.3989C40.3678 45.4513 38.6835 43.5481 38.2727 42.4738C38.1111 42.0533 37.8334 41.3467 38.2727 41.1033C38.5422 40.9538 38.6505 40.9894 39.3717 41.7899C40.0578 42.5501 42.816 44.59 48.0558 43.9993C61.8058 42.4514 70.0885 31.7155 67.4712 25.9384C65.6383 21.8945 55.0405 20.07 41.7999 26.7009C25.6371 34.7938 24.7599 41.4654 24.6213 43.9993C24.2429 50.9696 33.1814 54.6361 38.018 59.8199L38.2043 60.0253C39.1094 59.5237 40.0653 58.9941 41.0031 58.4773C43.4417 57.1317 45.7413 55.8696 46.8128 55.2817C48.5151 52.7968 51.9691 50.0547 54.463 50.0547C58.4494 50.0547 57.0803 55.8091 57.0803 55.8091C57.0803 55.8091 57.1611 55.5457 57.2693 55.5433C57.3828 55.5402 57.8218 54.7852 59.0524 55.2361C60.3181 55.7025 60.0303 56.5945 60.0382 56.6856C60.0534 56.8627 58.5429 61.9785 57.9153 65.2598C57.6148 66.8256 57.7887 67.9662 57.8774 67.9662C58.0008 67.9662 58.2532 67.5682 58.4876 67.1401L58.4824 67.1274C58.4824 67.1274 58.6588 66.8032 58.9541 66.2205L59.0122 66.0986L59.0146 66.1042C59.3628 65.4199 59.8516 64.414 60.4164 63.1674C61.5233 60.7174 65.7466 51.2585 66.1047 50.2122C66.4626 49.1658 66.6493 48.0839 66.8259 47.6199C66.9999 47.1563 68.4928 46.8066 70.2373 46.8194C71.9822 46.8322 72.1592 47.5796 72.1712 47.7342C72.184 47.8885 71.3418 49.964 71.1476 51.4308C70.9561 52.8979 71.1403 53.6298 71.2992 54.8615C71.4026 55.6669 71.9042 56.6884 72.4971 57.8463C74.3025 54.8815 77.4791 49.211 77.7843 47.6224C77.9933 46.5356 78.3288 45.4941 78.5055 45.0301C78.6819 44.5665 80.1724 44.2172 81.9169 44.2296C83.6618 44.2424 83.8381 44.9897 83.8508 45.1444C83.8636 45.2991 83.0186 47.3741 82.8272 48.8413C82.6353 50.3057 82.8199 51.0407 82.9784 52.2721C83.1149 53.326 83.9265 54.7424 84.7312 56.3535C86.9271 55.2665 89.5117 54.537 92.5378 54.5218C93.7907 54.5146 95.2458 54.6409 95.9972 54.8764V30.6357C95.9972 28.9255 95.1245 27.3496 93.6498 26.4959L54.2743 3.64055C52.802 2.78648 50.999 2.78648 49.5264 3.64055L10.2595 26.4848C8.78684 27.3389 8 28.9176 8 30.625V76.3553C8 78.0628 8.79166 79.6414 10.2619 80.4951L49.592 103.357C51.0643 104.214 52.8498 104.214 54.322 103.357L93.6701 80.4951C95.1423 79.6387 96 78.0624 96 76.3553V57.8739C95.5005 57.7261 94.7694 57.6098 94.0582 57.5266ZM51.6972 55.1318C50.8526 56.0819 49.4129 58.5319 48.7395 60.5824C47.4006 64.6539 47.9805 68.7917 48.9286 69.0402C50.0355 69.3312 51.8512 63.8889 52.7205 61.7603C53.2653 60.4274 55.3835 54.5115 54.9195 53.7209C54.5572 53.1027 53.0563 53.6018 51.6972 55.1318ZM67.0157 68.8548C67.0157 68.8548 66.7486 69.1086 66.8641 69.1793C67.0205 69.2732 67.3584 69.1514 67.7266 68.9587C68.7681 68.3004 71.1053 66.6582 71.1104 64.2283C71.1104 64.1575 71.1077 64.0891 71.1029 64.0156C70.5608 64.7302 70.0613 65.3661 69.6302 65.9057C68.8939 66.8253 67.0157 68.8548 67.0157 68.8548Z" fill="#CB5BAC"/>
</g>
<defs>
<clipPath id="clip0_3_233">
<rect width="104" height="104" rx="52" fill="white"/>
</clipPath>
</defs>
</svg>
