<svg width="104" height="104" viewBox="0 0 104 104" fill="none" xmlns="http://www.w3.org/2000/svg">
<g clip-path="url(#clip0_3_44)">
<path fill-rule="evenodd" clip-rule="evenodd" d="M0 0H104V104H0V0Z" fill="#3178C6"/>
<path d="M55.752 46.688V54.36H45.336V86H35.76V54.36H25.344V46.688H55.752ZM74.7819 86.392C71.9073 86.392 69.3313 85.9253 67.0539 84.992C64.7766 84.0587 62.9473 82.6773 61.5659 80.848C60.2219 79.0187 59.5126 76.816 59.4379 74.24H69.6299C69.7793 75.696 70.2833 76.816 71.1419 77.6C72.0006 78.3467 73.1206 78.72 74.5019 78.72C75.9206 78.72 77.0406 78.4027 77.8619 77.768C78.6833 77.096 79.0939 76.1813 79.0939 75.024C79.0939 74.0533 78.7579 73.2507 78.0859 72.616C77.4513 71.9813 76.6486 71.4587 75.6779 71.048C74.7446 70.6373 73.4006 70.1707 71.6459 69.648C69.1073 68.864 67.0353 68.08 65.4299 67.296C63.8246 66.512 62.4433 65.3547 61.2859 63.824C60.1286 62.2933 59.5499 60.296 59.5499 57.832C59.5499 54.1733 60.8753 51.3173 63.5259 49.264C66.1766 47.1733 69.6299 46.128 73.8859 46.128C78.2166 46.128 81.7073 47.1733 84.3579 49.264C87.0086 51.3173 88.4273 54.192 88.6139 57.888H78.2539C78.1793 56.6187 77.7126 55.6293 76.8539 54.92C75.9953 54.1733 74.8939 53.8 73.5499 53.8C72.3926 53.8 71.4593 54.1173 70.7499 54.752C70.0406 55.3493 69.6859 56.2267 69.6859 57.384C69.6859 58.6533 70.2833 59.6427 71.4779 60.352C72.6726 61.0613 74.5393 61.8267 77.0779 62.648C79.6166 63.5067 81.6699 64.328 83.2379 65.112C84.8433 65.896 86.2246 67.0347 87.3819 68.528C88.5393 70.0213 89.1179 71.944 89.1179 74.296C89.1179 76.536 88.5393 78.5707 87.3819 80.4C86.2619 82.2293 84.6193 83.6853 82.4539 84.768C80.2886 85.8507 77.7313 86.392 74.7819 86.392Z" fill="white"/>
</g>
<defs>
<clipPath id="clip0_3_44">
<rect width="104" height="104" rx="52" fill="white"/>
</clipPath>
</defs>
</svg>
