<svg width="104" height="104" viewBox="0 0 104 104" fill="none" xmlns="http://www.w3.org/2000/svg">
<g clip-path="url(#clip0_6_237)">
<path fill-rule="evenodd" clip-rule="evenodd" d="M0 0H104V104H0V0V0Z" fill="black"/>
<g clip-path="url(#clip1_6_237)">
<mask id="mask0_6_237" style="mask-type:alpha" maskUnits="userSpaceOnUse" x="10" y="14" width="78" height="77">
<path d="M65.0959 90.5771C66.3196 91.0515 67.7151 91.021 68.9504 90.4298L84.9468 82.7715C86.6276 81.9668 87.6965 80.2739 87.6965 78.4171V26.4889C87.6965 24.632 86.6276 22.9394 84.9468 22.1347L68.9504 14.4761C67.3294 13.7001 65.4322 13.8901 64.0097 14.9192C63.8063 15.0662 63.6127 15.2303 63.4312 15.4112L32.8079 43.2084L19.469 33.1342C18.2273 32.1964 16.4905 32.2732 15.3372 33.317L11.059 37.189C9.64838 38.4657 9.64677 40.6738 11.0555 41.9525L22.6234 52.4528L11.0555 62.9532C9.64677 64.2321 9.64838 66.4401 11.059 67.7168L15.3372 71.5887C16.4905 72.6326 18.2273 72.7093 19.469 71.7717L32.8079 61.6973L63.4312 89.4946C63.9156 89.9768 64.4844 90.3401 65.0959 90.5771ZM68.2842 34.9039L45.0481 52.4528L68.2842 70.0018V34.9039Z" fill="white"/>
</mask>
<g mask="url(#mask0_6_237)">
<path d="M84.9942 22.1467L68.9854 14.4776C67.1325 13.5899 64.9178 13.9643 63.4635 15.4113L11.0562 62.9533C9.64655 64.2322 9.64817 66.4402 11.0597 67.7169L15.3405 71.5888C16.4944 72.6327 18.2323 72.7094 19.4748 71.7718L82.5853 24.1362C84.7025 22.5382 87.7436 24.0406 87.7436 26.6848V26.4999C87.7436 24.6438 86.675 22.9519 84.9942 22.1467Z" fill="#0065A9"/>
<path d="M84.9942 82.7591L68.9854 90.4283C67.1325 91.3158 64.9178 90.9413 63.4635 89.4946L11.0562 41.9525C9.64655 40.6737 9.64817 38.4656 11.0597 37.1889L15.3405 33.3169C16.4944 32.2732 18.2323 32.1963 19.4748 33.1341L82.5853 80.7695C84.7025 82.3675 87.7436 80.8652 87.7436 78.2208V78.4059C87.7436 80.2618 86.675 81.9538 84.9942 82.7591Z" fill="#007ACC"/>
<path d="M68.9352 90.4345C67.0817 91.3213 64.8671 90.9466 63.4127 89.4996C65.2045 91.2824 68.2687 90.0196 68.2687 87.4981V17.4174C68.2687 14.8959 65.2045 13.6332 63.4127 15.4161C64.8671 13.9691 67.0817 13.5941 68.9352 14.481L84.9413 22.1396C86.6233 22.9443 87.6928 24.6369 87.6928 26.4938V78.4221C87.6928 80.2789 86.6233 81.9714 84.9413 82.7762L68.9352 90.4345Z" fill="#1F9CF0"/>
<path d="M65.096 90.5769C66.3197 91.051 67.7152 91.0208 68.9502 90.4296L84.9465 82.771C86.6276 81.9663 87.6966 80.2737 87.6966 78.4169V26.4886C87.6966 24.6317 86.6276 22.9392 84.9468 22.1344L68.9502 14.4759C67.3295 13.6998 65.4323 13.8899 64.0095 14.919C63.8064 15.066 63.6128 15.2301 63.431 15.411L32.8079 43.2081L19.469 33.1339C18.2273 32.1961 16.4905 32.273 15.3372 33.3167L11.059 37.1887C9.64838 38.4655 9.64677 40.6735 11.0555 41.9523L22.6234 52.4526L11.0555 62.953C9.64677 64.2319 9.64838 66.4399 11.059 67.7166L15.3372 71.5885C16.4905 72.6324 18.2273 72.7091 19.469 71.7715L32.8079 61.6971L63.431 89.4944C63.9154 89.9766 64.4844 90.3399 65.096 90.5769ZM68.2843 34.9037L45.0482 52.4526L68.2843 70.0016V34.9037Z" fill="url(#paint0_linear_6_237)" fill-opacity="0.25"/>
</g>
</g>
</g>
<defs>
<linearGradient id="paint0_linear_6_237" x1="48.8483" y1="13.9998" x2="48.8483" y2="90.9055" gradientUnits="userSpaceOnUse">
<stop stop-color="white"/>
<stop offset="1" stop-color="white" stop-opacity="0"/>
</linearGradient>
<clipPath id="clip0_6_237">
<rect width="104" height="104" rx="52" fill="white"/>
</clipPath>
<clipPath id="clip1_6_237">
<rect width="78" height="77" fill="white" transform="translate(10 14)"/>
</clipPath>
</defs>
</svg>
